<?xml version="1.0" encoding="UTF-8"?>
<!-- Generator: visioncortex VTracer 0.6.3 -->
<svg version="1.1" xmlns="http://www.w3.org/2000/svg" width="1280" height="1280">
<path d="M0 0 C5.12 3.1 9.79 6.47 11.81 12.38 C11.87 12.91 11.94 13.45 12 14 C12.84 14.15 12.84 14.15 13.69 14.31 C20.61 16.37 24.45 21.34 27.96 27.35 C28.59 28.58 29.2 29.82 29.81 31.06 C30.16 31.75 30.5 32.44 30.85 33.15 C33.49 38.6 35.58 44.18 37.62 49.88 C40.67 58.33 44.59 65.99 49 73.81 C55.25 84.95 59.51 96.07 63.15 108.28 C65.35 115.36 67.49 122.04 72 128 C79.93 125.15 85.93 119.38 91.59 113.29 C93 112 93 112 95 112 C95.26 111.4 95.53 110.81 95.8 110.19 C97.05 107.92 98.27 106.66 100.19 104.94 C114.43 90.99 116.73 74.68 117.12 55.81 C117.19 53 117.27 50.18 117.36 47.36 C117.42 45.62 117.46 43.88 117.48 42.14 C117.56 39.78 117.56 39.78 118 36 C118.99 35.34 119.98 34.68 121 34 C121.4 35.64 121.4 35.64 121.81 37.31 C123.12 42.56 124.56 47.78 126 53 C129.93 53.46 129.93 53.46 131.82 51.29 C132.39 50.55 132.97 49.82 133.56 49.06 C136.7 45.1 136.7 45.1 140 44 C140.33 48.24 140.44 50.36 138 53.94 C137.34 54.62 136.68 55.3 136 56 C136.91 56.1 137.82 56.21 138.75 56.31 C142.08 57.02 143.62 57.62 146 60 C147.23 63.31 146.85 65.61 146.03 69 C145.79 70.01 145.56 71.03 145.31 72.07 C145.04 73.18 144.78 74.29 144.5 75.44 C141.86 86.79 139.6 98.17 137.5 109.62 C134.94 123.53 132 137.26 128.44 150.95 C127.9 153.14 127.9 153.14 128 156 C135.39 147.79 139.15 137.65 139.56 126.75 C139.88 119.24 139.88 119.24 141 117 C141.13 115.65 141.2 114.29 141.25 112.93 C141.28 112.12 141.31 111.3 141.35 110.46 C141.41 108.76 141.46 107.06 141.52 105.36 C141.74 99.97 142.52 95.19 144 90 C146.16 93.24 146.74 95.59 147.56 99.38 C147.81 100.5 148.06 101.62 148.32 102.77 C148.9 105.51 149.46 108.25 150 111 C154.25 108.88 156.7 106.2 159.57 102.52 C161 101 161 101 164 100 C164.69 101.69 164.69 101.69 165 104 C163.56 106.62 163.56 106.62 162 109 C162 109.66 162 110.32 162 111 C163.13 111.45 164.27 111.91 165.44 112.38 C169 114 169 114 170 116 C170.26 121.55 169.66 126.35 168.24 131.72 C166.65 138.1 165.27 144.48 164.07 150.93 C163.91 151.78 163.75 152.63 163.59 153.51 C163.27 155.25 162.94 157 162.62 158.75 C160.18 171.97 157.67 185.16 154.62 198.25 C154.39 199.28 154.15 200.3 153.9 201.36 C152.8 205.99 151.61 210.51 150 215 C159.98 205.9 165.01 194.83 165.69 181.44 C165.73 180.06 165.78 178.68 165.82 177.31 C166 174 166 174 167 172 C167.23 168.43 167.39 164.87 167.52 161.3 C167.84 154.27 167.84 154.27 170 151 C170.33 151 170.66 151 171 151 C171.99 155.95 172.98 160.9 174 166 C176.31 166 178.62 166 181 166 C181.21 165.44 181.41 164.89 181.62 164.31 C183.55 161.07 186.04 159.32 189 157 C188.49 161.38 185.82 163.82 183 167 C183.95 167.58 184.9 168.15 185.88 168.75 C188.93 170.95 189.77 171.62 191 175 C191.57 185.98 188.41 197.51 186.35 208.23 C185.76 211.33 185.17 214.44 184.59 217.55 C176.95 258.02 176.95 258.02 172.19 270.44 C171.88 271.29 171.56 272.14 171.24 273.01 C170.51 275.01 169.76 277.01 169 279 C169.92 278.67 170.84 278.35 171.79 278.01 C175.06 276.98 177.6 276.84 181 277 C181 276.67 181 276.34 181 276 C186.44 275.95 191.88 275.91 197.32 275.89 C199.17 275.88 201.01 275.87 202.85 275.85 C218.02 275.71 231.87 276.6 246.44 281.25 C247.43 281.56 248.42 281.87 249.44 282.19 C262.65 286.41 274.61 291.48 286.31 298.93 C287.82 299.89 289.36 300.8 290.89 301.71 C302.47 308.66 312.14 317.98 321.69 327.44 C322.37 328.11 323.05 328.79 323.76 329.48 C327.05 332.79 329.79 335.85 332 340 C333.37 341.54 333.37 341.54 335 343 C336.71 344.63 338.38 346.29 340 348 C340 348.66 340 349.32 340 350 C341.07 349.9 342.14 349.79 343.25 349.69 C350.77 349.71 358.4 353.1 363.94 358.12 C370.82 366.01 373.11 374.73 372.57 385.04 C371.87 391.73 368.76 398.24 364 403 C363.01 403 362.02 403 361 403 C361.66 403.33 362.32 403.66 363 404 C366.73 413.14 366.83 423.61 367.57 433.32 C367.64 434.25 367.72 435.18 367.79 436.15 C367.93 438.1 368.06 440.06 368.17 442.02 C368.24 442.99 368.3 443.96 368.37 444.96 C368.42 445.84 368.47 446.71 368.52 447.61 C369.08 450.41 370.23 451.8 372 454 C372 454.66 372 455.32 372 456 C372.99 456.33 373.98 456.66 375 457 C375 457.66 375 458.32 375 459 C375.66 458.34 376.32 457.68 377 457 C377 456.01 377 455.02 377 454 C378.32 453.34 379.64 452.68 381 452 C381.69 453.69 381.69 453.69 382 456 C381.44 456.72 380.89 457.44 380.31 458.19 C378.69 460.83 378.69 460.83 379.65 463.04 C380.4 464.59 381.16 466.13 381.93 467.66 C384.05 472.28 384.58 476.27 382.94 481.19 C379.75 485.81 377.41 488.46 371.89 489.7 C370.75 489.9 369.61 490.1 368.44 490.31 C363.77 491.15 363.77 491.15 360.12 493.93 C358.79 496.07 358.79 496.07 357.83 498.26 C357 500 357 500 355 501 C355 502.32 355 503.64 355 505 C356.32 504.67 357.64 504.34 359 504 C359.1 503.26 359.21 502.51 359.31 501.75 C360.04 498.83 361.07 497.27 363 495 C364.32 495.66 365.64 496.32 367 497 C367 497.66 367 498.32 367 499 C368.65 499.33 370.3 499.66 372 500 C370.72 505.89 368.49 509.44 364.62 514 C360.87 518.49 357.84 522.88 355 528 C353.59 530.1 352.15 532.18 350.69 534.25 C347.76 538.41 344.94 542.62 342.25 546.94 C335.74 557.24 335.74 557.24 332 558.88 C330 559 330 559 327.38 558.94 C324.81 558.73 324.81 558.73 323 561 C320.68 561.4 318.34 561.74 316 562 C315.77 562.8 315.55 563.61 315.31 564.44 C314.88 565.28 314.45 566.13 314 567 C311.37 567.81 311.37 567.81 309 568 C308.96 568.6 308.92 569.2 308.88 569.81 C307.56 573.11 305.18 573.44 302 575 C300.37 576.26 298.77 577.56 297.19 578.88 C292.66 582.56 288.19 585.37 283 588 C281.84 588.62 280.67 589.23 279.48 589.87 C266.29 596.78 252.97 601.83 238.27 604.36 C235.04 604.9 235.04 604.9 232.26 606.02 C223.19 608.75 213.29 608.19 203.9 608.19 C201.77 608.19 199.64 608.21 197.51 608.22 C183.96 608.28 171.09 606.65 158 603 C156.88 602.7 155.76 602.4 154.6 602.09 C140.23 598.16 127.76 592.56 115 585 C114.08 584.47 113.16 583.93 112.21 583.38 C110.43 582.32 108.71 581.17 107 580 C107 579.34 107 578.68 107 578 C106.28 577.75 105.56 577.51 104.82 577.25 C93.8 572.36 83.37 561.01 75.67 551.86 C73.03 548.92 70.06 546.5 67 544 C67 544.66 67 545.32 67 546 C51.86 538.95 40.25 519.49 33 505 C32.86 505.8 32.71 506.61 32.56 507.44 C32 510 32 510 31 511 C28.56 511.19 28.56 511.19 26 511 C25.34 510.34 24.68 509.68 24 509 C24.58 502.42 24.58 502.42 26 501 C27.56 491.11 22.22 482.04 16.69 474.12 C14.45 471.13 12.11 468.25 9.74 465.38 C-8 443.81 -8 443.81 -8 435 C-8.66 434.67 -9.32 434.34 -10 434 C-11.29 432.07 -11.29 432.07 -12.62 429.69 C-13.07 428.91 -13.52 428.13 -13.98 427.32 C-15 425 -15 425 -15 421 C-15.66 421 -16.32 421 -17 421 C-17.2 420.47 -17.4 419.95 -17.61 419.4 C-21.39 409.51 -25.24 399.85 -30.56 390.67 C-32.44 387.38 -33 385.92 -33 382 C-33.66 382 -34.32 382 -35 382 C-35.33 380.35 -35.66 378.7 -36 377 C-36.66 377 -37.32 377 -38 377 C-39.22 374.53 -40.43 372.05 -41.62 369.56 C-41.99 368.8 -42.36 368.04 -42.74 367.26 C-44.93 362.62 -46.7 358.03 -48.2 353.13 C-51.14 343.59 -54.75 338.86 -63.78 334.06 C-67.1 332.33 -70.46 330.69 -73.83 329.06 C-83.74 324.24 -92.41 318.81 -100.41 311.21 C-108.91 303.96 -119.35 298.97 -130.44 297.56 C-141.41 298.91 -151.74 305.08 -161.5 309.93 C-168.01 313.04 -172.77 314.93 -180 314 C-182.99 311.76 -184.57 310.22 -185.81 306.69 C-185.87 306.13 -185.94 305.57 -186 305 C-186.63 304.92 -187.25 304.84 -187.89 304.76 C-190 304 -190 304 -191.01 302.18 C-191.23 301.42 -191.46 300.66 -191.69 299.88 C-191.92 299.13 -192.15 298.38 -192.39 297.62 C-195.75 283.27 -194.99 269.97 -188 257 C-188.57 257.29 -189.14 257.58 -189.72 257.88 C-194.6 260.22 -198.5 262.02 -204 261 C-206.61 259.26 -208.8 257.24 -211 255 C-211.99 254.01 -211.99 254.01 -213 253 C-213.33 252.01 -213.66 251.02 -214 250 C-214.66 250 -215.32 250 -216 250 C-220.31 235.55 -222.99 220.74 -216.38 206.5 C-215.92 205.68 -215.47 204.85 -215 204 C-215.72 204.18 -216.45 204.36 -217.2 204.54 C-225.08 206.28 -225.08 206.28 -229.5 204.94 C-232.21 202.84 -233.57 201.1 -235 198 C-235 197.34 -235 196.68 -235 196 C-235.62 195.73 -236.24 195.46 -236.88 195.19 C-239 194 -239 194 -241 191 C-241.42 189.14 -241.77 187.26 -242.06 185.38 C-242.37 181.88 -242.37 181.88 -244 179 C-244.87 166.85 -245.16 155.3 -236.89 145.5 C-234.99 143.56 -233.07 141.75 -231 140 C-226.52 141.97 -223.26 144.38 -219.65 147.59 C-217.57 149.37 -215.4 150.68 -213 152 C-206.25 155.75 -206.25 155.75 -204 158 C-203.01 158.33 -202.02 158.66 -201 159 C-201 159.66 -201 160.32 -201 161 C-184.69 164.74 -167.85 165.37 -151.19 166.06 C-149.28 166.15 -147.38 166.23 -145.48 166.32 C-135.91 166.73 -126.34 167.07 -116.76 167.28 C-115.88 167.3 -114.99 167.32 -114.08 167.34 C-109.87 167.43 -105.66 167.51 -101.45 167.57 C-99.96 167.6 -98.46 167.63 -96.96 167.66 C-95.66 167.67 -94.36 167.69 -93.02 167.71 C-90 168 -90 168 -88 170 C-87.88 173.12 -87.88 173.12 -88 176 C-87.34 176 -86.68 176 -86 176 C-82.56 167.24 -81.48 159.51 -81.59 150.16 C-81.51 142.33 -78.5 137.79 -73.38 132.06 C-68.4 127.74 -62.25 128.69 -56 129 C-49.27 129.89 -43.85 132.67 -38.62 136.94 C-35.61 139.31 -32.46 141.05 -29.09 142.85 C-27 144 -27 144 -24 146 C-23.64 145.38 -23.27 144.77 -22.9 144.13 C-20.42 139.96 -17.92 135.82 -15.19 131.81 C-11.27 126 -7.71 119.98 -4.15 113.94 C-3.04 112.06 -1.91 110.18 -0.79 108.31 C8.95 91.91 13.35 75.11 11 56 C9.76 51.56 7.47 47.86 5 44 C5 43.34 5 42.68 5 42 C4.34 42 3.68 42 3 42 C1.56 40.5 1.56 40.5 0 38.56 C-2.15 35.85 -2.15 35.85 -5 34 C-4.49 31.83 -4 30 -3 28 C0.76 28.51 3.67 29.22 7 31 C7.78 22.14 5.79 15.94 2 8 C1.39 6.59 0.78 5.17 0.19 3.75 C-0.4 2.39 -0.4 2.39 -1 1 C-0.67 0.67 -0.34 0.34 0 0 Z M167 174 C168 176 168 176 168 176 Z M-203 197 C-203.99 197.5 -203.99 197.5 -205 198 C-204.47 198.31 -203.94 198.63 -203.39 198.95 C-199.43 201.35 -196.28 203.72 -193 207 C-190.4 208.77 -187.7 210.39 -185 212 C-184.2 212.52 -183.39 213.03 -182.56 213.56 C-181.72 214.04 -180.87 214.51 -180 215 C-179.45 215.33 -178.9 215.66 -178.33 216 C-171.51 219.59 -164.36 219.95 -156.82 220.61 C-153 221 -153 221 -151 222 C-139.73 223.4 -128.33 223.1 -117 223 C-120.79 219.94 -124.98 217.66 -129.19 215.25 C-135.53 211.57 -141.35 207.69 -147 203 C-156.47 195.23 -166.72 188.49 -179.33 187.73 C-187.74 188.58 -195.93 192.5 -203 197 Z M-101.25 188.88 C-102.43 188.95 -103.62 189.03 -104.84 189.11 C-105.97 189.2 -107.1 189.28 -108.27 189.37 C-109.29 189.44 -110.32 189.51 -111.38 189.59 C-114.23 189.85 -114.23 189.85 -117 192 C-110.75 193.4 -104.64 194.31 -98.25 194.75 C-96 195 -96 195 -94 196 C-92.48 196.15 -90.96 196.25 -89.43 196.32 C-88.09 196.38 -88.09 196.38 -86.71 196.44 C-85.78 196.48 -84.84 196.52 -83.88 196.56 C-82.46 196.63 -82.46 196.63 -81.01 196.69 C-78.67 196.8 -76.34 196.9 -74 197 C-76.44 191.54 -76.44 191.54 -81 188 C-87.76 187.7 -94.52 188.38 -101.25 188.88 Z M-179 253 C-174.61 257.65 -169.95 260.94 -164.38 264 C-161 266 -161 266 -159.13 267.96 C-150.24 276.46 -135.52 276.25 -124 277 C-122.45 277.11 -120.91 277.22 -119.36 277.34 C-111.24 277.89 -103.14 278.14 -95 278 C-98.05 274.73 -101.66 272.9 -105.56 270.81 C-111.37 267.63 -116.56 264.26 -121.64 259.98 C-132.46 250.91 -143.42 243.35 -158.02 243.61 C-165.7 244.61 -172.86 248.4 -179 253 Z M-92 246 C-92.33 246.99 -92.66 247.98 -93 249 C-89.04 249.33 -85.08 249.66 -81 250 C-81 248.68 -81 247.36 -81 246 C-84.63 246 -88.26 246 -92 246 Z M349 365 C350.65 370.63 352.41 375.33 356 380 C356.33 380 356.66 380 357 380 C356.88 375.2 356.68 371.27 353.56 367.44 C351.35 364.77 351.35 364.77 349 365 Z M360 490 C361 492 361 492 361 492 Z M32 503 C33 505 33 505 33 505 Z M300 572 C299.67 572.66 299.34 573.32 299 574 C299.66 574 300.32 574 301 574 C300.67 573.34 300.34 572.68 300 572 Z " fill="#1EA9E5" transform="translate(533,242)"/>
<path d="M0 0 C4.25 1.49 6.95 2.9 9 7 C9.14 18.15 6.44 29.33 4.35 40.23 C3.76 43.33 3.17 46.44 2.59 49.55 C0.65 59.84 -1.4 70.1 -3.59 80.34 C-3.79 81.24 -3.98 82.15 -4.18 83.09 C-5.59 89.56 -7.33 95.91 -9.25 102.25 C-9.51 103.12 -9.78 103.99 -10.05 104.89 C-11.14 108.3 -11.92 110.41 -15.13 112.17 C-17.41 112.94 -19.65 113.51 -22 114 C-23.49 114.5 -23.49 114.5 -25 115 C-24.49 115.52 -23.98 116.04 -23.45 116.58 C-21.43 119.96 -22.09 121.94 -22.81 125.75 C-23.13 127.51 -23.13 127.51 -23.46 129.3 C-23.64 130.19 -23.82 131.08 -24 132 C-23.15 132.15 -22.31 132.29 -21.44 132.45 C-14.67 133.78 -9.97 135.2 -4.72 139.7 C-2.29 141.53 0.01 141.85 3 142 C3.54 140.89 4.07 139.77 4.62 138.62 C6.15 136.04 6.99 135.01 9.56 133.31 C14.08 132.9 17.18 134.24 21.32 135.96 C25.51 137.59 29.35 138.13 33.84 138.03 C34.74 138.02 35.64 138 36.56 137.99 C38.43 137.96 40.3 137.92 42.16 137.87 C47.53 137.81 51.96 138.09 57 140 C57.66 140.66 58.32 141.32 59 142 C58.97 143.77 58.93 145.54 58.82 147.31 C58.25 156.48 60.09 161.76 66 169 C72.73 177.53 72.73 177.53 73 183 C69.37 183.33 65.74 183.66 62 184 C62 195.55 62 207.1 62 219 C54.13 212.26 54.13 212.26 51.82 209.12 C51.31 208.43 50.8 207.74 50.27 207.03 C49.75 206.32 49.23 205.61 48.69 204.88 C47.55 203.37 46.42 201.87 45.28 200.37 C43.7 198.27 42.12 196.16 40.56 194.04 C36.1 187.4 36.1 187.4 29.64 183.23 C27.21 183.09 27.21 183.09 24 184 C22.29 185.71 22.83 187.92 22.79 190.25 C22.77 191.38 22.75 192.5 22.73 193.65 C22.72 194.87 22.7 196.09 22.68 197.35 C22.66 198.59 22.64 199.83 22.62 201.11 C22.57 204.42 22.52 207.72 22.47 211.03 C22.42 214.4 22.36 217.77 22.31 221.14 C22.2 227.76 22.1 234.38 22 241 C25.96 241.33 29.92 241.66 34 242 C34 230.78 34 219.56 34 208 C38.2 209.05 38.56 209.21 40.92 212.43 C41.71 213.49 41.71 213.49 42.52 214.58 C43.34 215.71 43.34 215.71 44.19 216.88 C45.34 218.43 46.5 219.98 47.66 221.54 C48.51 222.68 48.51 222.68 49.38 223.84 C52.77 228.35 56.31 232.74 60 237 C60.53 237.74 61.07 238.47 61.62 239.23 C64.85 241.95 64.85 241.95 74 242 C74 224.18 74 206.36 74 188 C78.36 190.18 78.87 191.05 81.12 195.12 C84.35 200.45 87.95 203.8 92.96 207.44 C95 209 95 209 96 211 C96.15 213.25 96.25 215.5 96.32 217.76 C96.34 218.42 96.36 219.08 96.38 219.77 C96.44 221.89 96.5 224.01 96.56 226.12 C96.61 227.56 96.65 229 96.69 230.43 C96.8 233.96 96.9 237.48 97 241 C101.29 241.33 105.58 241.66 110 242 C110 234.08 110 226.16 110 218 C115.66 216.3 121.31 214.61 127 213 C127.54 214.39 128.05 215.79 128.56 217.19 C128.85 217.96 129.14 218.74 129.44 219.54 C131.39 228.11 124.11 240.78 119.82 247.98 C114.95 255.25 108.81 261.42 102.55 267.49 C90.51 279.15 90.51 279.15 85.56 294.44 C85.71 298.73 86.54 301.92 88.27 305.81 C89.79 310.35 89.77 315.25 90 320 C89.34 320 88.68 320 88 320 C87.34 323.3 86.68 326.6 86 330 C80.06 328.51 80.06 328.51 74 327 C75.32 326.34 76.64 325.68 78 325 C80.24 322.14 81.09 320.84 80.69 317.19 C80.46 316.47 80.23 315.74 80 315 C77.98 315.6 75.98 316.27 74 317 C72.52 319.96 72.94 322.74 73 326 C64.53 324.19 56.47 321.87 48.36 318.8 C46.1 317.89 46.1 317.89 44 318 C44 317.34 44 316.68 44 316 C45.65 315.67 47.3 315.34 49 315 C49.33 312.36 49.66 309.72 50 307 C49.34 307 48.68 307 48 307 C48 306.34 48 305.68 48 305 C45.69 305 43.38 305 41 305 C40.81 306.26 40.63 307.52 40.44 308.81 C40.33 309.52 40.23 310.23 40.12 310.96 C39.86 313.2 39.86 313.2 41 316 C25.07 312.33 25.07 312.33 18.27 309 C15.42 307.75 12.54 306.89 9.56 306 C4.86 304.6 0.34 303.03 -4.19 301.13 C-6.45 300.22 -8.7 299.39 -11 298.59 C-11.71 298.34 -12.42 298.09 -13.15 297.83 C-14.56 297.33 -15.97 296.84 -17.38 296.37 C-21.99 294.72 -24.78 292.66 -28 289 C-28.33 288.67 -28.66 288.34 -29 288 C-28.98 286.87 -28.96 285.73 -28.94 284.56 C-28.59 280.95 -28.59 280.95 -31 279 C-31.83 278.67 -32.65 278.34 -33.5 278 C-36 277 -36 277 -38 275 C-37.8 272.91 -37.58 270.81 -37.3 268.73 C-36.77 263.85 -36.73 258.9 -37 254 C-38.68 252.32 -40.95 252.88 -43.25 252.81 C-46.3 252.59 -46.3 252.59 -49 252 C-50.24 250.48 -50.24 250.48 -51.5 248.94 C-53.64 245.81 -53.64 245.81 -56.46 245.5 C-60.97 245.4 -64.57 245.76 -68.75 247.49 C-73.4 249.33 -77.79 249.56 -82.75 249.69 C-83.63 249.72 -84.51 249.75 -85.41 249.78 C-87.15 249.83 -88.89 249.88 -90.63 249.92 C-92.65 249.99 -94.67 250.12 -96.69 250.27 C-103.12 250.63 -106.63 249.74 -111.57 245.51 C-113 244 -113 244 -114 242 C-113.09 242 -112.17 242 -111.23 241.99 C-107.66 241.3 -107.66 241.3 -106.04 237.64 C-105.45 236.14 -104.88 234.63 -104.34 233.12 C-104.03 232.31 -103.72 231.5 -103.4 230.67 C-102.41 228.08 -101.46 225.48 -100.5 222.88 C-99.86 221.17 -99.21 219.48 -98.57 217.78 C-97.3 214.45 -96.05 211.12 -94.8 207.78 C-92.32 201.14 -89.67 194.57 -87 188 C-83.7 190.66 -82.53 194.14 -81.07 197.98 C-80.8 198.68 -80.53 199.37 -80.26 200.08 C-79.39 202.3 -78.54 204.53 -77.69 206.75 C-77.13 208.2 -76.56 209.65 -76 211.1 C-75.16 213.26 -74.33 215.42 -73.49 217.58 C-72.1 221.18 -70.7 224.77 -69.24 228.35 C-68.97 229.04 -68.69 229.73 -68.4 230.45 C-67.63 232.34 -66.85 234.24 -66.08 236.13 C-65 239 -65 239 -65 241 C-60.38 241 -55.76 241 -51 241 C-50.32 239.27 -49.64 237.54 -48.95 235.75 C-48.25 233.99 -47.56 232.22 -46.87 230.46 C-46.37 229.2 -45.88 227.93 -45.38 226.67 C-42.64 219.67 -39.88 212.68 -37.04 205.71 C-36.58 204.58 -36.12 203.45 -35.65 202.28 C-34.77 200.13 -33.89 197.97 -33 195.82 C-32.6 194.85 -32.21 193.88 -31.8 192.88 C-31.45 192.03 -31.1 191.18 -30.74 190.3 C-29.8 187.77 -29.8 187.77 -30 184 C-30.9 184.05 -30.9 184.05 -31.81 184.1 C-38.5 184.01 -43.12 182.17 -48.81 178.94 C-55.47 175.17 -62.17 172.21 -69.38 169.62 C-70.27 169.3 -71.16 168.98 -72.07 168.65 C-76.63 167.05 -81.18 165.68 -85.86 164.48 C-89.82 163.43 -92.76 162.32 -95.94 159.62 C-96.66 159.02 -97.38 158.41 -98.12 157.79 C-100.33 155.69 -102.26 153.5 -104 151 C-100.52 149.84 -99.93 150.2 -96.62 151.44 C-84.86 155.14 -74.82 152.98 -64.11 147.53 C-37.56 132.81 -27.35 110.35 -19 82 C-17.7 76.86 -16.61 71.69 -15.56 66.5 C-15.27 65.07 -14.97 63.65 -14.68 62.22 C-9.08 35.45 -9.08 35.45 -4.55 8.49 C-3.76 4.93 -2.32 2.78 0 0 Z " fill="#050A0B" transform="translate(715,410)"/>
<path d="M0 0 C1.28 -0 1.28 -0 2.59 -0.01 C4.4 -0.02 6.22 -0.02 8.04 -0.02 C10.78 -0.02 13.51 -0.04 16.24 -0.06 C30.44 -0.11 43.47 1.07 57.08 5.42 C58.07 5.73 59.06 6.04 60.08 6.36 C73.29 10.58 85.25 15.65 96.95 23.1 C98.47 24.06 100 24.97 101.54 25.88 C113.11 32.83 122.79 42.15 132.33 51.61 C133.02 52.28 133.7 52.95 134.4 53.65 C137.69 56.96 140.43 60.01 142.64 64.17 C144.02 65.71 144.02 65.71 145.64 67.17 C147.35 68.79 149.02 70.46 150.64 72.17 C150.64 72.83 150.64 73.49 150.64 74.17 C151.72 74.06 152.79 73.96 153.89 73.86 C161.41 73.88 169.04 77.27 174.58 82.29 C181.47 90.17 183.78 98.91 183.18 109.22 C182.22 116.3 179.82 122.18 174.56 127.13 C172.32 128.74 170.13 129.99 167.64 131.17 C166.94 131.5 166.24 131.84 165.52 132.19 C157.16 135.55 147.08 135.49 138.7 132.21 C130.02 127.81 124.43 121.98 121.33 112.79 C120.76 110.92 120.19 109.05 119.64 107.17 C115.62 107.17 113.15 107.86 109.39 109.17 C107.5 109.83 105.6 110.49 103.64 111.17 C103.31 118.76 102.98 126.35 102.64 134.17 C92.59 134.27 92.59 134.27 89.64 134.17 C87.78 132.31 88.51 129.17 88.5 126.68 C88.49 125.34 88.47 124 88.45 122.66 C88.42 120.54 88.39 118.43 88.39 116.31 C88.39 114.27 88.36 112.23 88.32 110.18 C88.31 108.96 88.3 107.74 88.29 106.47 C87.24 101.08 83.28 98.59 79.14 95.36 C75.41 92.21 72.79 88.55 70.64 84.17 C70.64 83.51 70.64 82.85 70.64 82.17 C69.16 81.67 69.16 81.67 67.64 81.17 C67.31 98.66 66.98 116.15 66.64 134.17 C56.64 134.17 56.64 134.17 52.77 131.17 C46.95 124.55 41.85 117.27 36.64 110.17 C35.3 108.35 33.95 106.53 32.58 104.73 C32.08 104.05 31.57 103.37 31.05 102.67 C29.61 100.89 29.61 100.89 26.64 100.17 C26.64 111.39 26.64 122.61 26.64 134.17 C16.64 134.17 16.64 134.17 14.64 133.17 C14.6 125.9 14.56 118.63 14.54 111.37 C14.53 107.99 14.52 104.62 14.49 101.24 C14.47 97.37 14.46 93.49 14.45 89.61 C14.44 88.4 14.43 87.18 14.42 85.93 C14.42 84.25 14.42 84.25 14.42 82.54 C14.41 81.55 14.41 80.55 14.4 79.53 C14.64 77.17 14.64 77.17 16.64 75.17 C19.86 74.62 21.57 74.38 24.64 75.17 C27.53 77.38 29.49 80.26 31.64 83.17 C32.51 84.27 33.38 85.37 34.25 86.46 C37.87 91.03 41.44 95.63 45.02 100.22 C45.72 101.11 46.42 102 47.14 102.92 C47.75 103.7 48.36 104.48 48.99 105.28 C50.69 107.39 50.69 107.39 53.64 109.17 C53.97 98.28 54.3 87.39 54.64 76.17 C57.05 74.97 58.59 75.07 61.27 75.11 C62.09 75.11 62.9 75.12 63.75 75.13 C64.37 75.14 65 75.16 65.64 75.17 C63.04 68.3 59.45 62.8 55.09 56.95 C50.66 50.99 50.55 46.67 50.77 39.53 C50.8 37.74 50.73 35.95 50.64 34.17 C47.63 31.16 44.53 31.19 40.35 31.14 C36.8 31.19 33.25 31.26 29.7 31.38 C23.17 31.49 17.78 30.36 11.64 28.17 C8.28 26.97 5.57 26.02 1.96 26.61 C-1.41 28.88 -2.55 31.55 -4.36 35.17 C-8.99 34.68 -11.54 33.62 -15.17 30.73 C-19.25 27.7 -22.42 26.27 -27.45 25.65 C-29.95 25.02 -30.92 24.33 -32.36 22.17 C-32.07 19.32 -31.34 16.72 -30.61 13.96 C-30.29 10.43 -31.31 8.98 -33.36 6.17 C-30.67 5.52 -27.98 4.87 -25.29 4.23 C-24.54 4.05 -23.79 3.87 -23.01 3.68 C-19.47 2.83 -15.97 2.07 -12.36 1.6 C-1.28 0 -1.28 0 0 0 Z M159.64 89.17 C161.3 94.8 163.05 99.5 166.64 104.17 C166.97 104.17 167.3 104.17 167.64 104.17 C167.53 99.36 167.33 95.43 164.21 91.61 C161.99 88.94 161.99 88.94 159.64 89.17 Z " fill="#1EA9E5" transform="translate(722.35546875,517.83203125)"/>
<path d="M0 0 C0.92 0.11 1.85 0.23 2.8 0.35 C3.81 0.49 4.81 0.64 5.85 0.79 C6.9 0.93 7.95 1.07 9.03 1.22 C26.22 3.67 43.38 7.21 60.1 11.9 C64.15 13.04 68.21 14.07 72.29 15.1 C72.98 15.27 73.67 15.45 74.38 15.63 C77.88 16.54 77.88 16.54 81.48 16.85 C81.38 15.46 81.38 15.46 81.29 14.04 C81.48 10.85 81.48 10.85 82.66 8.91 C84.48 7.85 84.48 7.85 87.04 7.91 C89.48 8.85 89.48 8.85 90.79 10.6 C91.48 12.85 91.48 12.85 91.29 15.29 C91.51 18.32 92.44 19.47 94.61 21.54 C98.79 24.47 103.86 25.8 108.66 27.41 C110.85 28.16 113.03 28.91 115.21 29.66 C116.26 30.03 117.32 30.39 118.41 30.76 C122.82 32.32 127.15 34.07 131.48 35.85 C140.64 39.43 150.03 42.14 159.48 44.85 C159.29 44.25 159.11 43.66 158.92 43.05 C158.29 39.92 159.35 37.77 160.48 34.85 C162.79 34.85 165.1 34.85 167.48 34.85 C167.48 35.51 167.48 36.17 167.48 36.85 C168.14 36.85 168.8 36.85 169.48 36.85 C169.15 39.49 168.82 42.13 168.48 44.85 C166 45.34 166 45.34 163.48 45.85 C163.48 46.51 163.48 47.17 163.48 47.85 C164.47 47.52 165.46 47.19 166.48 46.85 C168.71 47.55 168.71 47.55 171.23 48.66 C177.81 51.44 184.55 53.15 191.48 54.85 C191.39 53.94 191.31 53.03 191.23 52.1 C191.48 48.85 191.48 48.85 193.23 46.47 C195.48 44.85 195.48 44.85 199.48 44.85 C200.66 47.04 200.66 47.04 201.48 49.85 C199.92 53.37 198.71 54.69 195.48 56.85 C196.76 57.1 198.03 57.34 199.35 57.6 C204.65 58.76 209.51 60.71 214.48 62.85 C213.96 67.91 212.85 71.7 210.54 76.22 C209.95 77.37 209.37 78.52 208.77 79.71 C208.15 80.9 207.53 82.09 206.91 83.29 C206.29 84.51 205.67 85.73 205.05 86.95 C203.53 89.92 202.01 92.89 200.48 95.85 C199.16 95.85 197.84 95.85 196.48 95.85 C196.31 95.11 196.13 94.37 195.96 93.62 C195.18 90.28 194.39 86.94 193.6 83.6 C193.33 82.44 193.06 81.28 192.79 80.09 C192.52 78.97 192.26 77.86 191.98 76.71 C191.74 75.68 191.5 74.65 191.25 73.6 C190.26 70.04 190.26 70.04 188.48 66.85 C185.8 66.01 183.3 66.03 180.48 65.85 C169.43 80.81 169.43 80.81 158.48 95.85 C161.5 96.5 164.38 97 167.48 96.85 C168.12 96.02 168.76 95.2 169.41 94.35 C170.09 93.52 170.78 92.7 171.48 91.85 C174.9 91.62 178.11 92.22 181.48 92.85 C182.96 93.03 182.96 93.03 184.48 93.22 C186.48 93.85 186.48 93.85 188.48 96.85 C188.6 99.54 188.6 99.54 188.48 101.85 C189.1 102.16 189.71 102.47 190.35 102.79 C191.73 103.47 193.1 104.16 194.48 104.85 C194.15 108.34 193 111.11 191.35 114.16 C190.98 114.86 190.6 115.55 190.22 116.27 C188.48 117.85 188.48 117.85 185.24 118.17 C156.49 115.72 126.61 102.4 99.91 91.97 C90.22 88.19 80.46 84.7 70.6 81.41 C69.37 81 68.14 80.58 66.88 80.16 C53.47 75.39 53.47 75.39 39.48 73.85 C39.48 73.19 39.48 72.53 39.48 71.85 C38.5 71.71 37.52 71.58 36.51 71.45 C33.77 71.05 31.04 70.6 28.32 70.09 C27.25 69.9 27.25 69.9 26.16 69.69 C24.7 69.42 23.25 69.15 21.79 68.87 C17.28 68.04 13.08 67.79 8.48 67.85 C5.54 67.04 5.54 67.04 2.48 65.85 C1.83 65.71 1.18 65.58 0.52 65.44 C-1.84 64.85 -3.52 64.23 -5.52 62.85 C-7.17 59.52 -7.57 56.13 -8.02 52.47 C-8.17 51.45 -8.32 50.42 -8.48 49.37 C-13.63 11.08 -13.63 11.08 -6.26 1.15 C-3.94 -0.59 -2.84 -0.36 0 0 Z " fill="#F9FCFE" transform="translate(595.5234375,680.15234375)"/>
<path d="M0 0 C2.47 3.02 3.93 5.92 5.34 9.55 C5.76 10.63 6.18 11.72 6.62 12.83 C7.05 13.98 7.49 15.13 7.94 16.31 C8.39 17.49 8.84 18.67 9.3 19.88 C12 27.03 14.24 34.05 16 41.49 C17.21 45.75 18.95 49.65 20.75 53.69 C23.79 60.58 24.92 66.39 24 74 C23.67 73.34 23.34 72.68 23 72 C20.95 71.24 20.95 71.24 18.56 70.75 C17.36 70.46 17.36 70.46 16.13 70.17 C15.43 70.12 14.72 70.06 14 70 C13.34 70.66 12.68 71.32 12 72 C12.41 72.35 12.83 72.71 13.25 73.07 C21.87 81.02 28.49 91.16 29.17 102.99 C29.58 120.16 29.58 120.16 25.84 125.73 C22.59 128.83 18.73 130.68 14.75 132.7 C4.29 138.02 -6.06 144.35 -10 156 C-9.79 159.82 -9.79 159.82 -9 163 C-8.34 163 -7.68 163 -7 163 C-6.61 161.91 -6.61 161.91 -6.21 160.8 C-2.27 151.71 5.56 144.88 14 140 C16.74 138.96 19.08 138.44 22 138 C20.31 142.89 17.65 147.07 14.94 151.44 C14.45 152.23 13.96 153.03 13.45 153.85 C10.43 158.74 7.36 163.6 4.25 168.44 C3.89 169 3.53 169.57 3.15 170.15 C1.44 172.81 -0.31 175.45 -2.11 178.06 C-6.82 184.95 -6.82 184.95 -7 193 C-20.58 183.05 -20.58 183.05 -23.81 178.38 C-29.39 172.32 -39.11 170.81 -47 170 C-52.91 170.22 -56.61 172.5 -60.68 176.75 C-66.67 184.77 -65.82 194.24 -65.92 203.8 C-66.01 206.28 -66.44 208.58 -67 211 C-67.11 212.52 -67.17 214.04 -67.19 215.56 C-67.2 216.31 -67.22 217.05 -67.23 217.82 C-66.97 220.31 -66.32 221.87 -65 224 C-64.24 224.54 -63.47 225.07 -62.69 225.62 C-59.9 228.09 -58.92 229.85 -57.33 233.15 C-56.67 234.51 -56.67 234.51 -56 235.9 C-55.67 236.59 -55.34 237.28 -55 238 C-59.06 237.76 -63.11 237.51 -67.17 237.26 C-68.55 237.17 -69.93 237.09 -71.31 237.01 C-73.29 236.89 -75.28 236.76 -77.27 236.63 C-78.46 236.56 -79.65 236.49 -80.88 236.41 C-83.79 236.03 -85.64 235.72 -88 234 C-88.59 231.19 -88.89 228.83 -89 226 C-89.04 225.19 -89.08 224.38 -89.12 223.54 C-89.25 219.01 -89.25 219.01 -89 217 C-87 215 -87 215 -84.18 214.8 C-83.09 214.83 -82 214.85 -80.88 214.88 C-79.78 214.89 -78.68 214.91 -77.55 214.93 C-76.71 214.95 -75.87 214.98 -75 215 C-75.33 213.02 -75.66 211.04 -76 209 C-76.91 209.09 -77.82 209.19 -78.76 209.28 C-90.67 209.94 -99.7 206.68 -110.56 202.03 C-112.73 201.12 -114.91 200.25 -117.11 199.41 C-125.73 196.12 -133.92 192.2 -142.1 187.97 C-143.41 187.3 -144.72 186.65 -146.04 186.01 C-150.25 183.97 -154.08 181.75 -157.88 179 C-159.26 178.01 -159.26 178.01 -160.68 177 C-162.97 175.03 -163.73 173.65 -165 171 C-165.99 170.67 -166.98 170.34 -168 170 C-168 169.34 -168 168.68 -168 168 C-168.96 167.66 -168.96 167.66 -169.94 167.31 C-172.47 166.23 -174.54 165.06 -176.88 163.62 C-184.15 159.5 -194.61 155.9 -203 157 C-206.56 158.44 -209.92 160.21 -213.31 162 C-215.28 163.01 -217.24 164.01 -219.21 165.02 C-220.18 165.52 -221.16 166.02 -222.16 166.54 C-226.25 168.65 -230.36 170.72 -234.5 172.75 C-235.17 173.1 -235.85 173.44 -236.54 173.8 C-240.77 175.85 -243.46 176.26 -248 175 C-251.35 160.22 -253.49 146.44 -245.06 132.81 C-243.6 130.58 -243.6 130.58 -242 129 C-238 129 -238 129 -236.26 130.63 C-235.51 131.41 -234.77 132.19 -234 133 C-228.55 137.29 -222.74 141.12 -217 145 C-215.73 145.89 -215.73 145.89 -214.43 146.79 C-195.92 157.91 -164.19 154.22 -143.17 155.12 C-137.46 155.37 -131.76 155.62 -126.06 155.88 C-123.35 156 -120.65 156.11 -117.95 156.22 C-116.3 156.29 -114.64 156.36 -112.99 156.44 C-111.86 156.48 -111.86 156.48 -110.71 156.52 C-107.03 156.7 -104.14 156.98 -101 159 C-103.51 160.25 -105.16 160.1 -107.97 160.07 C-109 160.06 -110.04 160.05 -111.1 160.04 C-112.22 160.02 -113.35 160.01 -114.5 159.99 C-116.85 159.97 -119.21 159.96 -121.56 159.94 C-125.29 159.91 -129.02 159.87 -132.74 159.83 C-136.33 159.79 -139.91 159.76 -143.5 159.74 C-145.18 159.71 -145.18 159.71 -146.9 159.69 C-148.45 159.68 -148.45 159.68 -150.03 159.68 C-150.94 159.67 -151.86 159.66 -152.8 159.65 C-153.89 159.82 -153.89 159.82 -155 160 C-155.66 160.99 -156.32 161.98 -157 163 C-156.01 163.33 -155.02 163.66 -154 164 C-153.67 164.87 -153.34 165.73 -153 166.62 C-149.04 173.31 -141.82 176.83 -134.44 178.75 C-119.26 181.69 -103.6 183.08 -88.17 183.79 C-85 184 -85 184 -79 185 C-79 180.71 -79 176.42 -79 172 C-80.58 171.66 -80.58 171.66 -82.19 171.31 C-86.24 170.12 -88.49 168.49 -91 165 C-91.54 160.48 -91.01 156.9 -90 152.5 C-89.11 148.61 -89 145.08 -89.17 141.1 C-89.49 132.98 -88.52 127.28 -83 121 C-79.6 117.76 -77.02 116.75 -72.44 116.5 C-65.54 116.82 -57.62 118.15 -52.09 122.51 C-50.56 124.26 -49.28 126.06 -48 128 C-46.93 129.43 -45.84 130.84 -44.75 132.25 C-44.17 133 -43.6 133.76 -43 134.53 C-39.91 138.34 -36.52 141.87 -33.14 145.42 C-31.07 147.92 -30 149.94 -29 153 C-30.11 152.98 -31.22 152.95 -32.36 152.93 C-33.82 152.91 -35.29 152.89 -36.75 152.88 C-37.48 152.86 -38.21 152.84 -38.96 152.82 C-44.36 152.67 -44.36 152.67 -49 155 C-49.7 156.65 -50.37 158.32 -51 160 C-46.8 160.05 -42.6 160.09 -38.4 160.11 C-36.97 160.12 -35.55 160.13 -34.12 160.15 C-32.06 160.18 -30.01 160.19 -27.95 160.2 C-26.1 160.21 -26.1 160.21 -24.21 160.23 C-21.18 160.01 -19.53 159.6 -17 158 C-17.53 153.62 -19.04 151.21 -21.81 147.81 C-22.84 146.52 -22.84 146.52 -23.89 145.21 C-25.79 142.93 -25.79 142.93 -28.07 142.12 C-30 141 -30 141 -30.77 139.11 C-31.52 132.72 -30.18 129.3 -26.5 124.12 C-26.04 123.43 -25.57 122.74 -25.1 122.02 C-24.17 120.64 -23.24 119.25 -22.29 117.88 C-20.61 115.44 -19.02 112.94 -17.44 110.44 C-16.89 109.58 -16.35 108.72 -15.79 107.84 C-3.49 88.28 9.12 66.53 4.5 42.41 C1.89 34.01 -2.73 26.18 -9 20 C-9.66 19.67 -10.32 19.34 -11 19 C-11 18.34 -11 17.68 -11 17 C-7.04 17.57 -4.33 18.81 -1 21 C-0.08 18.23 0.12 16.62 0.1 13.77 C0.09 12.97 0.09 12.16 0.09 11.34 C0.08 10.5 0.07 9.67 0.06 8.81 C0.06 7.55 0.06 7.55 0.05 6.25 C0.04 4.17 0.02 2.08 0 0 Z " fill="#FAFDFF" transform="translate(567,313)"/>
<path d="M0 0 C1.32 0.66 2.64 1.32 4 2 C4 2.66 4 3.32 4 4 C5.65 4.33 7.3 4.66 9 5 C7.72 10.89 5.49 14.44 1.62 19 C-2.13 23.49 -5.16 27.88 -8 33 C-9.41 35.1 -10.85 37.18 -12.31 39.25 C-15.24 43.41 -18.06 47.62 -20.75 51.94 C-27.26 62.24 -27.26 62.24 -31 63.88 C-33 64 -33 64 -35.62 63.94 C-38.19 63.73 -38.19 63.73 -40 66 C-41.18 66.16 -42.35 66.33 -43.56 66.5 C-44.7 66.66 -45.83 66.83 -47 67 C-47.33 67.66 -47.66 68.32 -48 69 C-62.05 69.8 -75.96 70.32 -90 69.19 C-91.05 69.11 -92.1 69.02 -93.18 68.94 C-101.08 68.21 -101.08 68.21 -105 66 C-99.82 55 -93.72 44.51 -87.69 33.96 C-86.05 31.08 -84.41 28.2 -82.78 25.32 C-81.79 23.59 -80.8 21.86 -79.81 20.12 C-79.36 19.32 -78.9 18.51 -78.43 17.68 C-78 16.94 -77.58 16.2 -77.14 15.45 C-76.78 14.8 -76.41 14.16 -76.03 13.49 C-75 12 -75 12 -73 11 C-66.22 11.12 -59.54 11.88 -52.88 13.06 C-45.43 14.2 -38.02 14.19 -30.5 14.19 C-29.27 14.19 -28.04 14.19 -26.77 14.19 C-17.49 14.75 -17.49 14.75 -9.38 11.5 C-8.69 10.76 -8.69 10.76 -8 10 C-5.81 9.31 -5.81 9.31 -4 9 C-3.9 8.26 -3.79 7.51 -3.69 6.75 C-2.96 3.83 -1.93 2.27 0 0 Z " fill="#050A0B" transform="translate(896,737)"/>
<path d="M0 0 C3.63 0 7.26 0 11 0 C26 28.27 26 28.27 26 40 C26.66 40 27.32 40 28 40 C28.6 38.29 28.6 38.29 29.22 36.54 C30.72 32.32 32.24 28.09 33.76 23.87 C34.42 22.05 35.07 20.22 35.72 18.39 C36.65 15.76 37.59 13.13 38.55 10.51 C38.83 9.69 39.12 8.87 39.41 8.02 C39.69 7.26 39.97 6.5 40.26 5.72 C40.5 5.04 40.74 4.37 40.99 3.68 C42.31 1.48 43.63 0.92 46 0 C49.49 -0.46 52.98 -0.42 56.5 -0.44 C57.45 -0.47 58.4 -0.5 59.38 -0.54 C60.3 -0.54 61.21 -0.55 62.16 -0.56 C62.99 -0.57 63.82 -0.59 64.68 -0.6 C68.13 0.29 69.1 2.06 71 5 C72.34 8.03 72.34 8.03 73.51 11.37 C74.15 13.19 74.15 13.19 74.81 15.05 C75.25 16.33 75.69 17.6 76.12 18.88 C76.57 20.14 77.02 21.41 77.46 22.68 C79.48 28.42 81.37 34.14 83 40 C83.66 40 84.32 40 85 40 C86.69 35.37 88.38 30.75 90.07 26.12 C90.65 24.55 91.22 22.97 91.8 21.4 C92.63 19.14 93.45 16.87 94.28 14.61 C94.66 13.56 94.66 13.56 95.06 12.48 C96.2 9.34 97.2 6.24 98 3 C99.21 1.26 99.21 1.26 101 0 C103.7 -0.29 103.7 -0.29 106.69 -0.19 C107.68 -0.16 108.68 -0.13 109.7 -0.11 C110.46 -0.07 111.22 -0.04 112 0 C113.36 4.48 112.56 6.98 110.79 11.24 C110.29 12.46 109.79 13.68 109.28 14.94 C108.73 16.25 108.18 17.56 107.62 18.88 C107.07 20.22 106.52 21.56 105.97 22.9 C105.13 24.94 104.3 26.98 103.45 29.02 C100.41 36.39 97.54 43.82 94.68 51.26 C94.34 52.14 94 53.02 93.64 53.93 C93.35 54.69 93.05 55.46 92.75 56.25 C92 58 92 58 91 59 C89.05 59.15 87.08 59.22 85.12 59.25 C83.52 59.29 83.52 59.29 81.88 59.33 C78.5 58.94 78.06 58.59 76 56 C75.05 53.98 74.18 51.93 73.36 49.85 C73.12 49.24 72.88 48.63 72.63 48 C71.85 46.03 71.08 44.04 70.31 42.06 C69.78 40.7 69.24 39.35 68.71 37.99 C67.64 35.28 66.57 32.56 65.51 29.84 C63.45 24.59 61.35 19.36 59.25 14.12 C58.61 12.52 57.97 10.92 57.33 9.32 C56.89 8.22 56.45 7.13 56 6 C52.61 14.07 49.3 22.18 46.06 30.31 C45.63 31.39 45.2 32.48 44.75 33.59 C42.85 38.36 40.94 43.14 39.05 47.92 C38.78 48.62 38.5 49.32 38.21 50.05 C37.49 51.86 36.77 53.68 36.06 55.5 C35 58 35 58 34 59 C32.05 59.2 30.09 59.31 28.12 59.38 C27.06 59.42 25.99 59.47 24.88 59.52 C22 59 22 59 20.3 56.79 C19.87 55.87 19.44 54.95 19 54 C18.53 53.25 18.05 52.5 17.56 51.72 C15.87 48.77 14.8 45.91 13.71 42.7 C11.87 37.41 9.93 32.19 7.85 26.99 C7.32 25.64 6.78 24.29 6.25 22.95 C5.43 20.89 4.61 18.83 3.78 16.78 C2.96 14.75 2.15 12.71 1.35 10.68 C0.88 9.49 0.4 8.3 -0.09 7.08 C-1 4 -1 4 0 0 Z " fill="#F9FCFE" transform="translate(573,593)"/>
<path d="M0 0 C0.66 0 1.32 0 2 0 C2 0.66 2 1.32 2 2 C3.07 1.9 4.14 1.79 5.25 1.69 C12.77 1.71 20.4 5.1 25.94 10.12 C32.82 18 35.14 26.74 34.54 37.05 C33.57 44.13 31.17 50.01 25.91 54.96 C23.68 56.57 21.49 57.82 19 59 C18.3 59.34 17.6 59.67 16.88 60.02 C8.52 63.38 -1.56 63.32 -9.94 60.04 C-18.41 55.75 -24.19 49.88 -27.5 41 C-29.9 32.41 -28.47 25.04 -24.58 17.11 C-18.81 7.95 -10.16 3.8 0 1 C0 0.67 0 0.34 0 0 Z M11 17 C12.65 22.63 14.41 27.33 18 32 C18.33 32 18.66 32 19 32 C18.88 27.2 18.68 23.27 15.56 19.44 C13.35 16.77 13.35 16.77 11 17 Z " fill="#FAFDFF" transform="translate(871,590)"/>
<path d="M0 0 C0.66 0 1.32 0 2 0 C2.08 0.58 2.16 1.15 2.25 1.75 C2.82 4.18 2.82 4.18 5.11 5.55 C7.29 8.37 7.22 8.88 6.88 12.28 C6.61 14.02 6.31 15.76 6 17.5 C5.85 18.44 5.69 19.39 5.53 20.36 C5.05 23.25 4.53 26.12 4 29 C3.79 30.15 3.79 30.15 3.58 31.33 C2.69 36.12 1.7 40.89 0.69 45.66 C0.01 48.97 -0.65 52.28 -1.31 55.59 C-8.22 90.4 -8.22 90.4 -14.15 104.89 C-15.04 107.11 -15.88 109.34 -16.71 111.58 C-20.76 122.23 -25.6 133.84 -36.36 139.17 C-37.15 139.5 -37.94 139.84 -38.75 140.19 C-39.55 140.53 -40.35 140.88 -41.17 141.23 C-41.78 141.48 -42.38 141.74 -43 142 C-44.01 138.96 -44.15 136.8 -44.21 133.62 C-44.64 115.85 -46.22 99.87 -52 83 C-48.67 80.1 -45.36 77.55 -41.62 75.19 C-36.78 72.02 -32.96 68.19 -29 64 C-24 59 -24 59 -21.62 56.69 C-8.96 43.72 -2.68 31.49 -1.19 13.25 C-1.07 11.97 -0.95 10.69 -0.82 9.37 C-0.53 6.25 -0.26 3.12 0 0 Z " fill="#F9FCFE" transform="translate(678,351)"/>
<path d="M0 0 C5.04 0.54 8.96 2.28 13.38 4.62 C14.79 5.35 16.2 6.07 17.62 6.79 C18.34 7.16 19.06 7.52 19.8 7.9 C23.34 9.67 26.9 11.36 30.5 13 C31.13 13.3 31.77 13.6 32.42 13.92 C38.82 16.78 44.24 16.46 51 15 C53.08 14.86 55.17 14.78 57.25 14.75 C58.84 14.71 58.84 14.71 60.45 14.67 C64.96 15.09 68.78 16.41 73 18 C73.77 18.29 74.53 18.57 75.32 18.87 C77.64 19.75 79.95 20.65 82.25 21.56 C83.41 22.02 83.41 22.02 84.6 22.48 C86.09 23.06 87.57 23.65 89.05 24.25 C90.67 24.87 92.32 25.4 93.98 25.9 C96 27 96 27 96.77 29.14 C97.07 32.9 96.08 35.33 94.73 38.84 C94.48 39.48 94.24 40.13 93.99 40.79 C93.21 42.85 92.42 44.89 91.62 46.94 C90.84 48.98 90.06 51.02 89.28 53.07 C88.58 54.93 87.86 56.79 87.14 58.64 C86.07 61.78 85.44 64.72 85 68 C84.67 67.01 84.34 66.02 84 65 C83.34 65 82.68 65 82 65 C81.41 63.42 80.81 61.85 80.22 60.27 C79.69 58.87 79.16 57.46 78.63 56.05 C77.11 51.99 75.61 47.93 74.15 43.85 C73.84 43 73.54 42.15 73.22 41.27 C72.62 39.62 72.03 37.96 71.45 36.3 C71.17 35.53 70.9 34.77 70.61 33.98 C70.37 33.31 70.13 32.64 69.89 31.94 C68.82 29.6 67.78 27.87 66 26 C63.74 25.44 63.74 25.44 61.22 25.57 C59.83 25.59 59.83 25.59 58.42 25.6 C56.97 25.64 56.97 25.64 55.5 25.69 C54.06 25.7 54.06 25.7 52.58 25.72 C47.2 25.78 47.2 25.78 42 27 C40.57 29.89 40.57 29.89 39.37 33.48 C39.14 34.14 38.9 34.79 38.66 35.46 C37.91 37.55 37.17 39.65 36.44 41.75 C35.94 43.15 35.44 44.55 34.94 45.95 C34.02 48.53 33.1 51.11 32.19 53.69 C31.46 55.72 30.7 57.74 29.88 59.73 C28.82 62.46 28.4 65.11 28 68 C27.67 67.01 27.34 66.02 27 65 C26.34 65 25.68 65 25 65 C23.97 62.21 22.95 59.42 21.94 56.62 C21.64 55.83 21.35 55.04 21.04 54.22 C20.77 53.46 20.5 52.7 20.21 51.91 C19.96 51.21 19.7 50.51 19.44 49.79 C19 48 19 48 20 46 C20.91 39.15 18.75 34.83 15.72 28.73 C13.38 23.89 11.78 18.77 10.18 13.65 C8.84 9.58 7.83 7.08 4 5 C2.35 4.29 0.69 3.61 -1 3 C-0.67 2.01 -0.34 1.02 0 0 Z " fill="#050A0B" transform="translate(574,568)"/>
<path d="M0 0 C2.61 0.09 3.92 0.33 6.01 1.92 C7.91 4.07 9.6 6.32 11.31 8.62 C12.18 9.73 13.04 10.83 13.91 11.92 C17.54 16.49 21.11 21.08 24.69 25.68 C25.39 26.57 26.09 27.46 26.81 28.38 C27.42 29.15 28.03 29.93 28.66 30.73 C30.36 32.84 30.36 32.84 33.31 34.62 C33.64 23.74 33.97 12.85 34.31 1.62 C36.54 0.51 37.84 0.46 40.31 0.44 C41.36 0.42 41.36 0.42 42.44 0.39 C44.31 0.62 44.31 0.62 46.31 2.62 C46.55 5.03 46.55 5.03 46.54 8.08 C46.54 9.23 46.54 10.37 46.54 11.54 C46.53 12.78 46.52 14.02 46.51 15.29 C46.5 16.55 46.5 17.81 46.5 19.11 C46.49 22.47 46.47 25.83 46.45 29.19 C46.43 32.61 46.42 36.04 46.41 39.46 C46.39 46.18 46.35 52.9 46.31 59.62 C44.73 59.71 43.14 59.76 41.55 59.81 C40.23 59.86 40.23 59.86 38.88 59.92 C34.87 59.46 33.1 57.37 30.51 54.43 C25.67 48.25 20.96 41.96 16.31 35.62 C14.97 33.81 13.61 31.99 12.25 30.19 C11.74 29.51 11.24 28.83 10.71 28.13 C9.28 26.35 9.28 26.35 6.31 25.62 C6.31 36.85 6.31 48.07 6.31 59.62 C-3.69 59.62 -3.69 59.62 -5.69 58.62 C-5.73 51.36 -5.77 44.09 -5.79 36.82 C-5.8 33.45 -5.82 30.08 -5.84 26.7 C-5.86 22.82 -5.87 18.95 -5.88 15.07 C-5.89 13.86 -5.9 12.64 -5.91 11.39 C-5.91 10.27 -5.91 9.15 -5.91 7.99 C-5.92 7 -5.92 6.01 -5.93 4.99 C-5.51 0.87 -3.93 0.67 0 0 Z " fill="#F9FCFE" transform="translate(742.6875,592.375)"/>
<path d="M0 0 C1.48 0.45 2.96 0.91 4.44 1.38 C5.26 1.63 6.08 1.89 6.93 2.15 C9 3 9 3 10 5 C10.26 10.55 9.66 15.35 8.24 20.72 C6.65 27.1 5.27 33.48 4.07 39.93 C3.91 40.78 3.75 41.63 3.59 42.5 C3.27 44.25 2.94 46 2.62 47.75 C0.19 60.9 -2.3 74.03 -5.31 87.06 C-5.54 88.06 -5.77 89.07 -6.01 90.1 C-6.64 92.74 -7.31 95.37 -8 98 C-8.17 98.77 -8.34 99.55 -8.52 100.34 C-10.37 107.37 -14.71 111.47 -19.88 116.38 C-20.68 117.17 -21.48 117.96 -22.31 118.78 C-31.78 128 -31.78 128 -36 128 C-36 128.66 -36 129.32 -36 130 C-36.66 130 -37.32 130 -38 130 C-36.45 124.91 -34.66 120.22 -32.31 115.44 C-24.37 98.49 -19.65 80.29 -16 62 C-15.87 61.33 -15.73 60.66 -15.59 59.98 C-13.91 51.58 -12.26 43.17 -10.65 34.76 C-10.51 34.04 -10.37 33.32 -10.23 32.58 C-9.51 28.83 -8.84 25.08 -8.23 21.31 C-8.11 20.54 -7.98 19.78 -7.85 18.99 C-7.62 17.54 -7.39 16.09 -7.18 14.63 C-6.21 8.73 -3.92 4.45 0 0 Z " fill="#050A0B" transform="translate(693,353)"/>
<path d="M0 0 C4.48 0.34 7.81 0.68 11 4 C12.22 7.31 11.85 9.61 11.03 13 C10.67 14.52 10.67 14.52 10.31 16.07 C9.91 17.74 9.91 17.74 9.5 19.44 C7.05 30 4.9 40.58 2.94 51.24 C0.78 62.99 -1.46 74.69 -4.25 86.31 C-4.6 87.79 -4.6 87.79 -4.96 89.29 C-5.6 91.87 -6.29 94.44 -7 97 C-7.16 97.68 -7.33 98.37 -7.49 99.07 C-9.5 106 -14.76 110.38 -19.81 115.25 C-20.7 116.13 -21.59 117.02 -22.51 117.93 C-26.77 122.11 -30.85 125.97 -36 129 C-36.33 128.34 -36.66 127.68 -37 127 C-36.38 125.21 -36.38 125.21 -35.34 123.03 C-34.96 122.22 -34.58 121.41 -34.19 120.58 C-33.78 119.71 -33.36 118.84 -32.94 117.94 C-19.76 89.37 -13.99 58.84 -8.58 28.02 C-8.37 26.8 -8.15 25.57 -7.93 24.31 C-7.53 22.05 -7.14 19.79 -6.77 17.53 C-4.5 4.5 -4.5 4.5 0 0 Z " fill="#050A0B" transform="translate(668,298)"/>
<path d="M0 0 C1.45 -0.04 1.45 -0.04 2.93 -0.09 C5.56 0.38 5.56 0.38 7.11 2.11 C8.59 4.41 9.54 6.53 10.47 9.1 C10.82 10.04 11.16 10.98 11.52 11.94 C11.88 12.95 12.25 13.96 12.62 15 C13.42 17.16 14.21 19.31 15 21.46 C15.42 22.59 15.83 23.72 16.26 24.87 C18.88 31.92 21.63 38.91 24.38 45.91 C24.78 46.94 25.18 47.98 25.59 49.04 C25.95 49.95 26.31 50.86 26.67 51.8 C27.54 54.32 28.11 56.76 28.56 59.38 C26.63 59.46 24.69 59.51 22.75 59.56 C21.67 59.6 20.59 59.63 19.48 59.67 C16.56 59.38 16.56 59.38 13.56 56.38 C12.57 53.4 11.58 50.43 10.56 47.38 C3.63 47.38 -3.3 47.38 -10.44 47.38 C-11.06 48.98 -11.67 50.59 -12.31 52.25 C-14.19 57.12 -14.19 57.12 -16.44 59.38 C-19.26 59.57 -19.26 59.57 -22.56 59.5 C-23.66 59.48 -24.75 59.46 -25.88 59.45 C-26.73 59.42 -27.57 59.4 -28.44 59.38 C-27.79 55.75 -26.83 52.41 -25.58 48.95 C-25.02 47.39 -25.02 47.39 -24.45 45.81 C-24.06 44.72 -23.66 43.62 -23.25 42.5 C-22.84 41.38 -22.44 40.26 -22.02 39.1 C-18.99 30.79 -15.82 22.55 -12.44 14.38 C-11.97 13.22 -11.51 12.07 -11.03 10.88 C-10.59 9.78 -10.14 8.69 -9.69 7.56 C-9.3 6.61 -8.91 5.65 -8.52 4.67 C-6.45 0.27 -4.62 0.06 0 0 Z " fill="#FAFDFF" transform="translate(548.4375,592.625)"/>
<path d="M0 0 C5.01 0.63 9.45 2.18 14.12 4 C22.5 7.17 30.97 10.01 39.5 12.75 C40.67 13.13 41.84 13.5 43.04 13.89 C49.98 16.11 56.95 18.15 64 20 C64 20.66 64 21.32 64 22 C64.66 22 65.32 22 66 22 C65.5 23.49 65.5 23.49 65 25 C62.03 24.67 59.06 24.34 56 24 C56 25.24 56 26.48 56 27.75 C56 30.5 56 33.25 56 36 C54.14 37.67 54.14 37.67 51.69 39.19 C50.89 39.7 50.09 40.21 49.26 40.73 C46.12 42.5 43.3 43.16 39.76 43.54 C38.53 43.67 38.53 43.67 37.28 43.8 C35.99 43.93 35.99 43.93 34.69 44.06 C33.85 44.15 33 44.24 32.13 44.34 C20.03 45.6 20.03 45.6 16.19 43.38 C13.52 40.48 13.39 38.86 13 35 C11.36 28.72 7.87 23.66 4.37 18.28 C0.94 12.73 0.94 12.73 1.26 8.64 C1.5 7.77 1.75 6.9 2 6 C1.15 3.25 1.15 3.25 0 1 C0 0.67 0 0.34 0 0 Z " fill="#050A0B" transform="translate(700,774)"/>
<path d="M0 0 C6.95 2.82 13.08 6.34 18.31 11.75 C29.02 21.76 42.03 27.7 55.2 33.77 C57.92 35.03 60.62 36.31 63.31 37.62 C64.4 38.15 64.4 38.15 65.5 38.68 C69.2 40.86 70.72 43.14 72.06 47.19 C72.33 47.95 72.59 48.71 72.86 49.5 C73.35 51.96 73.11 53.4 72.31 55.75 C71.51 55.02 71.51 55.02 70.69 54.28 C65.63 49.96 60.59 46.68 54.62 43.81 C43.29 38.35 33.07 32.67 23.9 23.96 C15.4 16.71 4.96 11.72 -6.12 10.31 C-17.1 11.66 -27.43 17.83 -37.19 22.68 C-43.7 25.79 -48.45 27.67 -55.69 26.75 C-59.77 23.77 -60.9 21.62 -61.69 16.75 C-60.16 16.01 -60.16 16.01 -58.6 15.25 C-54.79 13.4 -50.98 11.56 -47.17 9.71 C-45.53 8.91 -43.89 8.11 -42.24 7.31 C-39.87 6.16 -37.5 5.01 -35.12 3.86 C-34.4 3.51 -33.68 3.16 -32.93 2.8 C-32.23 2.46 -31.53 2.12 -30.81 1.76 C-30.13 1.44 -29.45 1.11 -28.75 0.77 C-27.32 0.06 -25.9 -0.66 -24.49 -1.39 C-23.78 -1.76 -23.07 -2.12 -22.34 -2.5 C-21.71 -2.83 -21.08 -3.16 -20.43 -3.51 C-14.34 -6.1 -5.82 -2.09 0 0 Z " fill="#050A0B" transform="translate(408.6875,529.25)"/>
<path d="M0 0 C9.1 4.23 9.1 4.23 12.57 7.7 C13.06 9.19 13.06 9.19 13.57 10.7 C15.58 11.44 15.58 11.44 17.57 11.7 C17.57 12.36 17.57 13.02 17.57 13.7 C18.29 13.95 19.01 14.2 19.76 14.45 C22.57 15.7 22.57 15.7 24.57 17.42 C28.86 20.69 33.54 23.04 38.32 25.52 C39.85 26.31 39.85 26.31 41.41 27.12 C49.95 31.5 58.62 35.26 67.57 38.7 C69.59 39.51 71.61 40.33 73.63 41.14 C74.94 41.66 76.26 42.18 77.57 42.7 C77.57 43.36 77.57 44.02 77.57 44.7 C78.56 45.03 79.55 45.36 80.57 45.7 C76.94 45.65 73.32 45.56 69.69 45.45 C68.68 45.44 67.67 45.43 66.62 45.41 C56.43 45.08 48.58 41.69 40.01 36.39 C39.36 36 38.72 35.61 38.05 35.2 C31.92 31.4 26.39 27.02 20.82 22.45 C11.85 15.36 0.5 8.5 -11.43 9.7 C-17.8 11.4 -23.92 13.62 -29.56 17.08 C-32.86 18.95 -33.06 18.6 -36.43 17.7 C-39.08 19.49 -40.99 20.82 -42.43 23.7 C-47.6 25.91 -53 27.73 -58.43 25.7 C-62.33 22.59 -63.67 20.56 -64.43 15.7 C-60.4 13.68 -56.36 11.65 -52.33 9.63 C-50.96 8.94 -49.59 8.25 -48.23 7.57 C-43.64 5.26 -39.04 2.97 -34.43 0.7 C-33.81 0.4 -33.19 0.09 -32.55 -0.22 C-30.8 -1.08 -29.04 -1.92 -27.27 -2.77 C-26.27 -3.25 -25.27 -3.73 -24.24 -4.23 C-15.67 -7.48 -7.83 -3.51 0 0 Z " fill="#050A0B" transform="translate(362.430908203125,421.295654296875)"/>
<path d="M0 0 C0.75 -0 1.49 -0.01 2.26 -0.01 C3.84 -0.02 5.42 -0.02 7 -0.02 C9.43 -0.02 11.85 -0.04 14.27 -0.06 C15.81 -0.06 17.34 -0.06 18.88 -0.06 C19.6 -0.07 20.33 -0.08 21.08 -0.08 C26.21 -0.06 26.21 -0.06 28.44 2.17 C28.44 5.14 28.44 8.11 28.44 11.17 C20.85 11.5 13.26 11.83 5.44 12.17 C5.44 16.46 5.44 20.75 5.44 25.17 C6.58 25.16 7.72 25.14 8.9 25.13 C10.39 25.12 11.88 25.11 13.38 25.11 C14.13 25.1 14.88 25.09 15.66 25.08 C17.59 25.07 19.51 25.12 21.44 25.17 C22.44 26.17 22.44 26.17 22.44 34.17 C16.5 34.5 10.56 34.83 4.44 35.17 C4.58 37.13 4.73 39.09 4.88 41.11 C4.96 42.21 5.04 43.31 5.12 44.45 C5.14 47.08 5.14 47.08 6.44 48.17 C7.99 48.31 9.54 48.39 11.09 48.45 C12.03 48.49 12.97 48.52 13.94 48.56 C14.93 48.6 15.92 48.63 16.94 48.67 C18.89 48.74 20.83 48.81 22.78 48.89 C23.65 48.92 24.52 48.95 25.41 48.98 C27.44 49.17 27.44 49.17 28.44 50.17 C28.51 51.69 28.52 53.21 28.5 54.73 C28.49 55.56 28.48 56.38 28.47 57.23 C28.46 57.87 28.45 58.51 28.44 59.17 C23.19 59.19 17.94 59.21 12.68 59.22 C10.9 59.23 9.11 59.23 7.32 59.24 C4.76 59.26 2.19 59.26 -0.37 59.27 C-1.58 59.27 -1.58 59.27 -2.81 59.28 C-4.73 59.28 -6.64 59.23 -8.56 59.17 C-9.56 58.17 -9.56 58.17 -9.68 55.88 C-9.68 54.87 -9.68 53.86 -9.68 52.82 C-9.68 51.68 -9.68 50.54 -9.68 49.36 C-9.67 48.12 -9.67 46.88 -9.66 45.6 C-9.66 44.34 -9.66 43.07 -9.66 41.77 C-9.65 38.41 -9.64 35.04 -9.63 31.68 C-9.62 28.24 -9.62 24.81 -9.61 21.38 C-9.6 14.64 -9.58 7.91 -9.56 1.17 C-6.52 -0.35 -3.34 0.01 0 0 Z " fill="#F9FCFE" transform="translate(700.5625,592.83203125)"/>
<path d="M0 0 C3.68 2.21 6.68 4.54 9.61 7.7 C10.27 8.03 10.93 8.36 11.61 8.7 C11.61 9.36 11.61 10.02 11.61 10.7 C12.18 10.97 12.74 11.23 13.32 11.51 C15.79 12.8 18.04 14.28 20.36 15.83 C31.63 23.03 43.91 28.4 56.14 33.73 C56.95 34.09 57.77 34.45 58.61 34.82 C59.69 35.29 59.69 35.29 60.8 35.78 C62.61 36.7 62.61 36.7 64.61 38.7 C64.61 39.69 64.61 40.68 64.61 41.7 C62.26 41.62 59.91 41.51 57.55 41.39 C55.58 41.3 55.58 41.3 53.58 41.21 C41.36 39.64 28.24 30.48 18.98 22.68 C8.14 13.6 -2.8 6.07 -17.41 6.31 C-24.05 7.18 -29.92 10.45 -35.82 13.45 C-38.39 14.7 -38.39 14.7 -41.07 15.2 C-43.43 15.49 -43.43 15.49 -44.73 17.1 C-48.71 20.96 -54.74 22.42 -60.07 23.33 C-64.63 22.47 -67.39 20.18 -70.39 16.7 C-70.72 15.71 -71.05 14.72 -71.39 13.7 C-66.07 10.84 -60.74 8.03 -55.38 5.26 C-53.33 4.19 -51.28 3.11 -49.24 2.02 C-46.02 0.3 -42.77 -1.38 -39.51 -3.05 C-38.5 -3.6 -37.5 -4.15 -36.46 -4.71 C-23.79 -11.07 -11.82 -6.42 0 0 Z " fill="#050A0B" transform="translate(392.38671875,480.296875)"/>
<path d="M0 0 C6.95 1.45 13.39 3.42 20 6 C21.09 6.35 22.19 6.7 23.31 7.06 C28.33 10.68 31.28 16.49 32.52 22.51 C32.77 27.76 31.48 30.95 28 35 C21.85 40.41 17.16 40.72 9.04 40.25 C2.56 39.46 -4.19 36.91 -10 34 C-7.44 22.44 -3.66 11.25 0 0 Z " fill="#050A0B" transform="translate(706,726)"/>
<path d="M0 0 C7.82 2.26 10.93 6.42 14.94 13.35 C18.82 20.64 21.83 28.12 24.62 35.88 C27.67 44.33 31.59 51.99 36 59.81 C42.25 70.95 46.51 82.07 50.15 94.28 C52.38 101.43 54.62 107.9 59 114 C59 114.66 59 115.32 59 116 C57.25 117.69 57.25 117.69 55 119 C53 118.83 53 118.83 51 118 C49.76 116.29 49.76 116.29 48.69 114.06 C46.93 110.59 45.02 107.76 42.56 104.75 C38.47 99.07 37.09 92.93 35.34 86.25 C33.66 79.99 31.6 74.11 28.94 68.19 C28.46 67.12 28.46 67.12 27.98 66.04 C25.69 61.1 22.94 56.57 20 52 C15.83 45.11 13.71 37.88 11.53 30.2 C8.5 19.81 4.26 9.92 0 0 Z " fill="#050A0B" transform="translate(546,256)"/>
<path d="M0 0 C0.77 0 1.55 0 2.35 0 C3.66 -0 3.66 -0 5.01 -0.01 C6.43 0.01 6.43 0.01 7.88 0.02 C8.85 0.02 9.82 0.02 10.82 0.02 C12.88 0.02 14.94 0.03 16.99 0.04 C20.15 0.06 23.31 0.06 26.46 0.06 C28.46 0.07 30.45 0.07 32.44 0.08 C33.87 0.08 33.87 0.08 35.33 0.08 C36.2 0.09 37.07 0.1 37.97 0.1 C39.14 0.11 39.14 0.11 40.32 0.11 C42.1 0.25 42.1 0.25 43.1 1.25 C43.24 4.25 43.14 7.24 43.1 10.25 C35.18 10.74 35.18 10.74 27.1 11.25 C27.1 27.09 27.1 42.93 27.1 59.25 C22.81 59.25 18.52 59.25 14.1 59.25 C12.22 57.38 12.85 54.22 12.78 51.71 C12.76 51.04 12.74 50.37 12.72 49.68 C12.67 48.25 12.63 46.81 12.59 45.38 C12.53 43.25 12.47 41.11 12.4 38.98 C12.11 29.4 12.06 19.83 12.1 10.25 C7.48 10.58 2.86 10.91 -1.9 11.25 C-4.21 7.79 -4.25 6.3 -3.9 2.25 C-1.9 0.25 -1.9 0.25 0 0 Z " fill="#F9FCFE" transform="translate(797.9041900634766,592.7527618408203)"/>
<path d="M0 0 C2.97 0.33 5.94 0.66 9 1 C16 17.38 16 17.38 16 25 C19.87 25.42 19.87 25.42 21.8 23.52 C22.39 22.84 22.99 22.16 23.61 21.46 C24.62 20.38 24.62 20.38 25.65 19.26 C27.04 17.72 28.43 16.16 29.8 14.6 C34.92 9.13 34.92 9.13 38.3 8.73 C40.52 9 40.52 9 44 10 C44 10.66 44 11.32 44 12 C44.66 12 45.32 12 46 12 C44.59 19.42 42.92 26.74 41.06 34.06 C40.81 35.11 40.56 36.15 40.3 37.22 C40.05 38.21 39.79 39.2 39.54 40.22 C39.31 41.12 39.09 42.01 38.86 42.93 C38.58 43.62 38.29 44.3 38 45 C37.01 45.33 36.02 45.66 35 46 C33.02 45.01 31.04 44.02 29 43 C30.32 37.06 31.64 31.12 33 25 C28.34 27.33 25.73 30.24 22.22 34 C19.99 36.01 18.97 36.85 16 37 C13.88 36.39 13.88 36.39 12 35 C10.8 32.64 10.8 32.64 9.88 29.81 C9.55 28.83 9.22 27.85 8.88 26.84 C7.87 23.57 6.88 20.31 6 17 C5.34 17 4.68 17 4 17 C3.85 18.64 3.85 18.64 3.69 20.31 C3.03 25.69 1.52 30.81 0 36 C-5.75 35.12 -5.75 35.12 -8 34 C-7.35 26.59 -5.42 19.65 -3.44 12.5 C-3.11 11.3 -2.78 10.09 -2.44 8.85 C-1.63 5.9 -0.82 2.95 0 0 Z " fill="#050A0B" transform="translate(619,701)"/>
<path d="M0 0 C0.79 0.08 1.57 0.16 2.38 0.24 C4.44 0.69 4.44 0.69 6.44 2.69 C7.13 4.27 7.77 5.88 8.38 7.5 C9.47 10.38 10.39 12.62 12.19 15.12 C14.32 19.5 14.3 23.94 13.44 28.69 C11.45 32.17 9.05 34.88 5.44 36.69 C-2.26 37.34 -8.35 37.55 -14.56 32.69 C-19.09 27.71 -18.96 22.45 -18.91 15.99 C-18.41 11.22 -16.84 8.15 -13.56 4.69 C-9.05 1.17 -5.72 -0.63 0 0 Z " fill="#1EAAE6" transform="translate(875.5625,603.3125)"/>
<path d="M0 0 C4.35 1.59 4.77 2.37 6.75 6.38 C7.63 9.08 7.63 9.08 8.32 11.98 C8.58 13.05 8.83 14.11 9.1 15.21 C9.35 16.32 9.61 17.42 9.88 18.56 C10.27 20.19 10.27 20.19 10.68 21.85 C12.21 28.35 13.3 34.71 13.75 41.38 C6 38.5 6 38.5 3.75 37.38 C3.12 35.53 3.12 35.53 2.62 33.31 C2.46 32.58 2.29 31.85 2.12 31.09 C2 30.52 1.87 29.96 1.75 29.38 C-0.67 29.07 -3.08 28.81 -5.5 28.56 C-6.18 28.47 -6.86 28.38 -7.57 28.29 C-9.85 28.02 -9.85 28.02 -13.25 28.38 C-15.46 30.81 -15.46 30.81 -17.25 33.38 C-19.57 33.71 -19.57 33.71 -21.94 33.31 C-22.73 33.2 -23.51 33.08 -24.32 32.96 C-24.96 32.77 -25.6 32.58 -26.25 32.38 C-26.58 31.72 -26.91 31.05 -27.25 30.38 C-26.59 30.38 -25.93 30.38 -25.25 30.38 C-24.97 29.79 -24.7 29.21 -24.41 28.61 C-23.3 26.46 -22.07 24.56 -20.68 22.58 C-20.18 21.87 -19.68 21.16 -19.16 20.43 C-17.01 17.42 -14.86 14.41 -12.69 11.41 C-11.48 9.71 -10.33 7.97 -9.18 6.22 C-4.78 -0.24 -4.78 -0.24 0 0 Z " fill="#050A0B" transform="translate(780.25,744.625)"/>
<path d="M0 0 C1.25 3.06 1.25 3.06 2 6 C2.66 6 3.32 6 4 6 C4.19 6.64 4.37 7.28 4.56 7.94 C5.94 10.42 5.94 10.42 9.62 10.75 C11.3 10.87 11.3 10.87 13 11 C13 13.97 13 16.94 13 20 C8.99 18.66 8.24 16.47 6 13 C3.6 11.8 2.3 11.95 -0.37 12.09 C-1.25 12.13 -2.13 12.17 -3.03 12.22 C-3.97 12.27 -4.91 12.32 -5.88 12.38 C-7.3 12.45 -7.3 12.45 -8.76 12.53 C-20.11 13.01 -20.11 13.01 -31.37 14.43 C-39.01 15.73 -44.44 12.85 -51.12 9.38 C-51.74 8.92 -52.36 8.47 -53 8 C-53 7.34 -53 6.68 -53 6 C-53.66 6 -54.32 6 -55 6 C-55 5.01 -55 4.02 -55 3 C-55.66 3 -56.32 3 -57 3 C-57 2.01 -57 1.02 -57 0 C-49.53 -0.17 -42.05 -0.33 -34.58 -0.48 C-32.03 -0.54 -29.49 -0.59 -26.95 -0.65 C-23.29 -0.73 -19.64 -0.81 -15.98 -0.88 C-14.85 -0.91 -13.71 -0.93 -12.53 -0.96 C-10.94 -0.99 -10.94 -0.99 -9.32 -1.02 C-8.39 -1.04 -7.45 -1.06 -6.49 -1.08 C-4.11 -1 -2.22 -0.88 0 0 Z " fill="#050A0B" transform="translate(448,419)"/>
<path d="M0 0 C2.16 3.24 2.74 5.59 3.56 9.38 C3.81 10.5 4.06 11.62 4.32 12.77 C4.9 15.51 5.46 18.25 6 21 C10.25 18.88 12.7 16.2 15.57 12.52 C17 11 17 11 20 10 C20.69 11.69 20.69 11.69 21 14 C19.6 16.6 18.05 18.94 16.28 21.3 C12.49 26.53 10.45 31.23 9.52 37.6 C9.27 39.12 9.03 40.63 8.78 42.15 C8.66 42.94 8.53 43.73 8.4 44.55 C7.72 48.72 6.94 52.88 6.17 57.04 C6.01 57.9 5.85 58.75 5.69 59.63 C-5.57 120.05 -5.57 120.05 -18 142 C-18.99 142.33 -19.98 142.66 -21 143 C-20.18 137.08 -17.53 131.73 -15.23 126.27 C-9.53 112.38 -5.96 98.25 -3.06 83.56 C-2.72 81.87 -2.38 80.17 -2.04 78.47 C-1.01 73.32 -0 68.16 1 63 C1.16 62.18 1.32 61.36 1.49 60.52 C2.39 55.88 3.29 51.23 4.16 46.59 C4.43 45.17 4.7 43.75 4.97 42.33 C5.34 40.37 5.71 38.4 6.07 36.43 C6.27 35.33 6.48 34.23 6.69 33.09 C7.02 29.84 6.68 27.19 6 24 C5.01 23.67 4.02 23.34 3 23 C3 21.68 3 20.36 3 19 C2.34 19 1.68 19 1 19 C0.91 20.9 0.91 20.9 0.82 22.84 C0.73 24.54 0.65 26.24 0.56 27.94 C0.52 28.77 0.48 29.6 0.44 30.46 C0.23 34.6 -0.02 38.74 -0.41 42.88 C-0.51 43.93 -0.51 43.93 -0.61 44.99 C-1.06 47.32 -1.73 49 -3 51 C-4.49 51.5 -4.49 51.5 -6 52 C-5.85 51.02 -5.69 50.03 -5.53 49.02 C-4.84 44.2 -4.63 39.38 -4.39 34.52 C-4.1 29.21 -4.1 29.21 -3 27 C-2.87 25.65 -2.8 24.29 -2.75 22.93 C-2.72 22.12 -2.69 21.3 -2.65 20.46 C-2.59 18.76 -2.54 17.06 -2.48 15.36 C-2.26 9.97 -1.48 5.19 0 0 Z " fill="#20A9E3" transform="translate(677,332)"/>
<path d="M0 0 C5.54 0.64 10.52 1.55 15.81 3.31 C16.47 3.51 17.12 3.71 17.79 3.92 C20.73 4.89 22.8 5.8 25.01 7.98 C26 10 26 10 25 13 C20.41 12.45 16.37 11.46 12 10 C10.68 10 9.36 10 8 10 C7.67 11.98 7.34 13.96 7 16 C7.64 16.23 8.28 16.46 8.93 16.7 C11.4 17.67 13.71 18.65 16 20 C17.06 22.75 17.06 22.75 17 25 C13.37 26.21 11.93 25.63 8.31 24.56 C6.82 24.13 6.82 24.13 5.3 23.69 C4.54 23.46 3.78 23.24 3 23 C2.67 25.31 2.34 27.62 2 30 C3.25 30.38 3.25 30.38 4.52 30.77 C5.61 31.11 6.69 31.46 7.81 31.81 C8.89 32.15 9.97 32.49 11.08 32.83 C13.82 33.93 15.28 34.64 17 37 C16.69 39.19 16.69 39.19 16 41 C10.27 40.37 5.08 38.94 -0.38 37.12 C-1.19 36.87 -2.01 36.61 -2.86 36.35 C-3.63 36.09 -4.41 35.83 -5.21 35.57 C-5.92 35.34 -6.62 35.11 -7.35 34.88 C-9 34 -9 34 -10 31 C-9.39 28.58 -8.71 26.29 -7.91 23.93 C-7.69 23.24 -7.46 22.56 -7.23 21.85 C-6.52 19.67 -5.79 17.49 -5.06 15.31 C-4.58 13.83 -4.09 12.35 -3.6 10.87 C-2.41 7.25 -1.21 3.62 0 0 Z " fill="#050A0B" transform="translate(674,716)"/>
<path d="M0 0 C1.96 0.87 1.96 0.87 4 2 C4.36 3.33 4.7 4.66 5 6 C5.99 6.33 6.98 6.66 8 7 C8 7.66 8 8.32 8 9 C8.66 8.34 9.32 7.68 10 7 C10 6.01 10 5.02 10 4 C11.32 3.34 12.64 2.68 14 2 C14.69 3.69 14.69 3.69 15 6 C14.44 6.72 13.89 7.44 13.31 8.19 C11.69 10.83 11.69 10.83 12.65 13.04 C13.4 14.59 14.16 16.13 14.93 17.66 C17.05 22.28 17.58 26.27 15.94 31.19 C10.91 38.49 6.14 39.8 -2.37 41.52 C-3.24 41.68 -4.1 41.84 -5 42 C-6.13 38.61 -5.84 37.17 -5.2 33.7 C-4.37 29.12 -3.61 24.53 -2.93 19.92 C-2.76 18.74 -2.58 17.56 -2.4 16.35 C-2.23 15.16 -2.05 13.97 -1.88 12.75 C-1.69 11.52 -1.51 10.28 -1.32 9.01 C-0.88 6.01 -0.44 3 0 0 Z " fill="#050A0B" transform="translate(900,692)"/>
<path d="M0 0 C4.05 2.3 7.7 4.95 11.31 7.88 C11.86 8.3 12.41 8.72 12.98 9.15 C15.52 11.22 16.89 12.41 17.48 15.7 C17 18 17 18 15 20 C12.62 20.2 12.62 20.2 9.88 20.12 C8.96 20.11 8.05 20.09 7.12 20.07 C6.42 20.05 5.72 20.02 5 20 C5.97 20.74 6.94 21.49 7.94 22.25 C9.84 23.85 10.9 24.8 12 27.06 C12 29.49 11.13 30.88 10 33 C-4.78 32.04 -4.78 32.04 -11 31 C-11.62 29.19 -11.62 29.19 -12 27 C-11.01 25.51 -11.01 25.51 -10 24 C-7.62 23.71 -7.62 23.71 -4.88 23.81 C-3.96 23.84 -3.05 23.87 -2.12 23.89 C-1.42 23.93 -0.72 23.96 0 24 C-2.31 22.02 -4.62 20.04 -7 18 C-6.34 16.02 -5.68 14.04 -5 12 C-1.7 12 1.6 12 5 12 C4.03 11.42 3.06 10.85 2.06 10.25 C-1 8 -1 8 -2 6 C-2 3.53 -1.27 2.09 0 0 Z " fill="#FAFDFF" transform="translate(928,751)"/>
<path d="M0 0 C1.05 -0.03 2.1 -0.06 3.18 -0.09 C4.07 -0.12 4.97 -0.14 5.9 -0.17 C8.11 0.16 8.11 0.16 9.91 1.32 C11.6 3.9 11.41 5.8 11.3 8.85 C11.26 10.34 11.26 10.34 11.22 11.86 C11.18 12.62 11.15 13.38 11.11 14.16 C9.96 14.23 9.96 14.23 8.78 14.31 C7.77 14.38 6.77 14.46 5.74 14.54 C4.74 14.6 3.74 14.67 2.71 14.75 C-0.04 14.92 -0.04 14.92 -1.89 17.16 C-9.03 16.9 -17.47 13.41 -22.63 8.5 C-24.01 6.85 -24.01 6.85 -25.89 4.16 C-23.89 1.16 -23.89 1.16 -22.01 0.73 C-20.89 0.69 -20.89 0.69 -19.74 0.65 C-18.9 0.61 -18.07 0.58 -17.21 0.54 C-16.32 0.52 -15.43 0.5 -14.51 0.47 C-13.16 0.43 -13.16 0.43 -11.78 0.38 C-9.98 0.32 -8.18 0.27 -6.37 0.22 C-4.25 0.17 -2.12 0.09 0 0 Z " fill="#050A0B" transform="translate(440.88671875,473.83984375)"/>
<path d="M0 0 C2.35 0.14 4.71 0.29 7.06 0.44 C9.03 0.56 9.03 0.56 11.04 0.68 C14.74 0.98 18.33 1.43 22 2 C22.33 4.31 22.66 6.62 23 9 C20.03 10.65 17.06 12.3 14 14 C17.42 14.34 17.42 14.34 20.84 14.68 C23 15 23 15 25 16 C25.62 19.06 25.62 19.06 26 22 C23.07 23.7 20.13 25.39 17.19 27.06 C15.94 27.79 15.94 27.79 14.66 28.53 C13.86 28.99 13.06 29.44 12.23 29.91 C11.12 30.55 11.12 30.55 9.99 31.2 C8 32 8 32 5 31 C5 29.02 5 27.04 5 25 C7.64 23.68 10.28 22.36 13 21 C12.36 20.87 11.72 20.73 11.07 20.6 C10.24 20.42 9.41 20.24 8.56 20.06 C7.33 19.8 7.33 19.8 6.07 19.54 C4 19 4 19 3 18 C2.96 16 2.96 14 3 12 C5.97 10.68 8.94 9.36 12 8 C8.7 7.67 5.4 7.34 2 7 C1.34 4.69 0.68 2.38 0 0 Z " fill="#FAFDFF" transform="translate(933,632)"/>
<path d="M0 0 C5.91 0.08 10.08 4.01 14.5 7.56 C13.9 11.17 13.6 11.49 10.44 13.88 C6.19 16.14 3.11 15.53 -1.5 14.56 C-0.05 15.68 -0.05 15.68 1.44 16.81 C3.27 18.36 4.46 19.49 5.69 21.56 C5.5 23.56 5.5 23.56 3.56 26.38 C0.5 28.56 0.5 28.56 -3.5 28.56 C-8.25 27.6 -11.34 25.98 -14.44 22.19 C-15.5 19.56 -15.5 19.56 -14.69 16.75 C-14.3 16.03 -13.9 15.31 -13.5 14.56 C-12.51 14.56 -11.52 14.56 -10.5 14.56 C-10.4 13.92 -10.29 13.28 -10.19 12.62 C-9.96 11.94 -9.73 11.26 -9.5 10.56 C-8.51 10.23 -7.52 9.9 -6.5 9.56 C-6.38 8.45 -6.25 7.34 -6.12 6.19 C-5.3 1.42 -4.78 0.77 0 0 Z M0.5 5.56 C0.5 6.88 0.5 8.2 0.5 9.56 C1.82 9.56 3.14 9.56 4.5 9.56 C4.5 8.57 4.5 7.58 4.5 6.56 C3.18 6.23 1.86 5.9 0.5 5.56 Z M-8.5 18.56 C-8.17 19.55 -7.84 20.54 -7.5 21.56 C-5.85 21.89 -4.2 22.22 -2.5 22.56 C-2.83 21.57 -3.16 20.58 -3.5 19.56 C-5.15 19.23 -6.8 18.9 -8.5 18.56 Z " fill="#FAFDFF" transform="translate(620.5,856.4375)"/>
<path d="M0 0 C-0.33 1.65 -0.66 3.3 -1 5 C-1.66 5 -2.32 5 -3 5 C-3.12 5.78 -3.25 6.57 -3.38 7.38 C-4 10 -4 10 -6 12 C-8.62 12.62 -8.62 12.62 -11 13 C-10.43 13.13 -9.87 13.27 -9.29 13.4 C-8.55 13.58 -7.82 13.76 -7.06 13.94 C-6.33 14.11 -5.6 14.29 -4.85 14.46 C-3 15 -3 15 -2 16 C-1.53 22.33 -1.53 22.33 -3.31 24.88 C-7.21 27.47 -11.48 27.48 -16 27 C-19.17 25.72 -20.54 24.97 -22 21.88 C-22 18.21 -20.92 15.38 -19.59 11.99 C-18.74 9.95 -18.74 9.95 -20 8 C-20.56 2.73 -20.56 2.73 -18.56 0.12 C-12.79 -2.41 -6.05 -1.03 0 0 Z M-13 4 C-13 4.99 -13 5.98 -13 7 C-11.68 7 -10.36 7 -9 7 C-9 6.01 -9 5.02 -9 4 C-10.32 4 -11.64 4 -13 4 Z M-15 19 C-15.33 19.66 -15.66 20.32 -16 21 C-13.69 21.33 -11.38 21.66 -9 22 C-9 21.01 -9 20.02 -9 19 C-10.98 19 -12.96 19 -15 19 Z " fill="#FAFDFF" transform="translate(732,890)"/>
<path d="M0 0 C2 3 2 3 2 7 C2.64 7.29 3.28 7.58 3.94 7.88 C6 9 6 9 7 11 C7.57 15.18 7.21 16.69 4.81 20.25 C1.55 23.44 -0.38 24.87 -4.95 25.1 C-7.17 25 -8.92 24.77 -11 24 C-13.5 20.94 -13.5 20.94 -15 18 C-18.96 19.98 -18.96 19.98 -23 22 C-24.56 20.25 -24.56 20.25 -26 18 C-25.8 16 -25.8 16 -25 14 C-23.53 12.8 -23.53 12.8 -21.65 11.82 C-20.96 11.45 -20.27 11.08 -19.57 10.69 C-18.84 10.32 -18.12 9.95 -17.38 9.56 C-13.11 7.31 -8.99 5.08 -5.1 2.21 C-2 0 -2 0 0 0 Z M-10 14 C-9.67 15.32 -9.34 16.64 -9 18 C-5.4 18.41 -4.22 18.15 -1.19 16 C-0.47 15.34 0.26 14.68 1 14 C0.67 12.68 0.34 11.36 0 10 C-4.72 10 -6.27 11.29 -10 14 Z " fill="#FAFDFF" transform="translate(922,558)"/>
<path d="M0 0 C2.97 0.5 2.97 0.5 6 1 C7.47 4.81 6.43 7.29 5 11 C6.39 11.15 6.39 11.15 7.81 11.31 C11 12 11 12 12.88 13.06 C14.76 16.31 14.54 19.41 14 23 C12.93 26.78 11.71 30.46 10 34 C9.01 34.5 9.01 34.5 8 35 C5.38 34.06 5.38 34.06 3 33 C3.13 32.43 3.27 31.86 3.4 31.28 C4.49 26.53 5.38 21.83 6 17 C5.01 17 4.02 17 3 17 C2.75 17.84 2.49 18.69 2.23 19.55 C1.89 20.65 1.54 21.75 1.19 22.88 C0.85 23.97 0.51 25.06 0.17 26.18 C-1 29 -1 29 -4 31 C-6.69 30.12 -6.69 30.12 -9 29 C-7.64 22.24 -5.71 15.91 -3.38 9.44 C-3.05 8.52 -2.73 7.61 -2.39 6.67 C-1.6 4.44 -0.8 2.22 0 0 Z " fill="#FAFDFF" transform="translate(663,867)"/>
<path d="M0 0 C1.59 0.43 3.17 0.87 4.75 1.31 C6.07 1.68 6.07 1.68 7.42 2.05 C10.27 3.1 11.84 3.85 14 6 C14.65 8.62 15.04 10.93 15.3 13.59 C15.39 14.33 15.47 15.07 15.56 15.84 C15.74 17.4 15.91 18.97 16.07 20.53 C16.31 22.93 16.58 25.32 16.86 27.71 C17.03 29.23 17.2 30.75 17.36 32.28 C17.44 32.99 17.52 33.7 17.61 34.44 C17.95 37.84 18.16 40.74 17 44 C13.4 40.81 11.28 37.26 9.19 33 C8.85 32.32 8.51 31.63 8.16 30.92 C5.4 25.16 3.05 19.26 0.88 13.25 C0.56 12.39 0.24 11.54 -0.09 10.65 C-0.37 9.84 -0.66 9.04 -0.95 8.2 C-1.2 7.49 -1.45 6.77 -1.71 6.04 C-2.08 3.43 -1.35 2.2 0 0 Z " fill="#FAFDFF" transform="translate(487,581)"/>
<path d="M0 0 C4.24 1.44 5.98 4.09 7.94 8 C8.36 16.69 8.36 16.69 5.94 20 C2.5 22.29 0.95 22.18 -3.06 22 C-2.73 24.31 -2.4 26.62 -2.06 29 C-4.04 29.66 -6.02 30.32 -8.06 31 C-9.05 27.63 -10.02 24.25 -11 20.88 C-11.28 19.92 -11.56 18.97 -11.84 17.99 C-14.61 8.39 -14.61 8.39 -15.06 4 C-14.73 3.67 -14.4 3.34 -14.06 3 C-13.15 3.04 -12.25 3.08 -11.31 3.12 C-8.03 3.27 -8.03 3.27 -5.56 1.44 C-3.06 0 -3.06 0 0 0 Z M-4.06 6 C-4.72 6.66 -5.38 7.32 -6.06 8 C-6.09 9.99 -6.09 9.99 -5.69 12.12 C-5.48 13.4 -5.27 14.68 -5.06 16 C-3.08 16.5 -3.08 16.5 -1.06 17 C0.48 14 1.08 12.58 0.25 9.25 C-0.92 6.68 -0.92 6.68 -4.06 6 Z " fill="#FAFDFF" transform="translate(790.0625,881)"/>
<path d="M0 0 C4.49 0.65 8.48 2.46 12.56 4.37 C12.56 6.02 12.56 7.67 12.56 9.37 C8.33 10.56 5.46 10.09 1.25 8.93 C-0.35 8.5 -0.35 8.5 -1.99 8.06 C-2.8 7.83 -3.6 7.61 -4.44 7.37 C-4.44 9.02 -4.44 10.67 -4.44 12.37 C-3.42 12.55 -3.42 12.55 -2.39 12.74 C-1.5 12.91 -0.61 13.07 0.31 13.25 C1.19 13.41 2.08 13.57 2.98 13.74 C5.43 14.34 7.37 15.15 9.56 16.37 C9.23 18.35 8.9 20.33 8.56 22.37 C1.74 21.81 -4.41 20.44 -10.94 18.43 C-11.84 18.17 -12.75 17.9 -13.68 17.63 C-14.54 17.37 -15.4 17.11 -16.28 16.84 C-17.06 16.61 -17.83 16.37 -18.63 16.13 C-20.44 15.37 -20.44 15.37 -21.44 13.37 C-20.5 10.75 -20.5 10.75 -19.44 8.37 C-16.31 8.86 -13.44 9.37 -10.44 10.37 C-10.33 9.28 -10.23 8.18 -10.12 7.06 C-8.91 0.55 -6.1 -0.17 0 0 Z " fill="#FAFDFF" transform="translate(941.4375,731.62890625)"/>
<path d="M0 0 C4.26 1.05 6.34 2.6 9.62 5.47 C10.58 6.3 11.54 7.13 12.52 7.98 C13.59 8.93 13.59 8.93 14.68 9.91 C13.31 13.07 12.69 13.9 9.68 15.91 C9 15.33 8.31 14.76 7.6 14.16 C6.7 13.42 5.8 12.68 4.87 11.91 C3.98 11.17 3.08 10.43 2.16 9.66 C-0.22 7.62 -0.22 7.62 -3.32 7.91 C-2.81 11.99 -0.82 13.57 2.25 16.16 C3.07 16.87 3.9 17.57 4.75 18.3 C5.39 18.83 6.03 19.36 6.68 19.91 C5.31 23.07 4.69 23.9 1.68 25.91 C1.23 25.51 0.78 25.11 0.32 24.7 C-9.63 15.83 -9.63 15.83 -20.32 7.91 C-19.74 5.04 -19.45 4.05 -17.32 1.91 C-14.3 2.3 -12.92 3.17 -10.32 4.91 C-10.32 5.57 -10.32 6.23 -10.32 6.91 C-9.66 6.91 -9 6.91 -8.32 6.91 C-8.05 6.13 -7.78 5.34 -7.5 4.54 C-5.74 0.64 -4.24 -0.11 0 0 Z " fill="#FAFDFF" transform="translate(899.31640625,811.08984375)"/>
<path d="M0 0 C10.38 1.15 10.38 1.15 13.9 5.26 C15.78 8.23 16.06 10.51 16 14 C14.84 17.85 13.81 20.24 10.88 23 C6.78 24.42 3.16 24.13 -1 23 C-2.65 22.01 -4.3 21.02 -6 20 C-4.02 13.4 -2.04 6.8 0 0 Z " fill="#FAFDFF" transform="translate(713,736)"/>
<path d="M0 0 C4.03 1.5 5.48 3.84 7.69 7.44 C8.29 8.41 8.89 9.37 9.51 10.37 C11 13 11 13 12 16 C10.69 17.5 10.69 17.5 9 19 C8.01 19 7.02 19 6 19 C4.61 17.25 4.61 17.25 3.31 15 C2.88 14.26 2.44 13.51 1.99 12.75 C1.66 12.17 1.34 11.6 1 11 C-0.65 11.33 -2.3 11.66 -4 12 C-1.52 16.46 -1.52 16.46 1 21 C0.01 21.99 -0.98 22.98 -2 24 C-4 24 -4 24 -6 23 C-7.75 20.44 -7.75 20.44 -9 18 C-12.72 19.21 -16.38 20.51 -20 22 C-23 18.38 -23 18.38 -23 15 C-20.51 13.24 -18.06 11.67 -15.44 10.12 C-14.02 9.28 -12.6 8.42 -11.18 7.57 C-10.14 6.94 -10.14 6.94 -9.08 6.3 C-5.95 4.34 -2.98 2.19 0 0 Z " fill="#FAFDFF" transform="translate(565,786)"/>
<path d="M0 0 C2.34 0.29 4.67 0.62 7 1 C7 1.66 7 2.32 7 3 C7.66 3 8.32 3 9 3 C6.53 13.73 3.91 24.38 1 35 C-3.12 36.18 -5.14 35.7 -9 34 C-7.73 26.32 -6.02 18.87 -3.94 11.38 C-3.67 10.38 -3.4 9.39 -3.12 8.37 C-1.13 1.13 -1.13 1.13 0 0 Z " fill="#050A0B" transform="translate(748,739)"/>
<path d="M0 0 C3.7 2.03 5.65 3.48 8 7 C8.48 11.92 8.51 14.06 6.12 18.44 C3.9 21.12 3.18 21.87 -0.21 22.24 C-7.28 22.44 -7.28 22.44 -11.06 20.12 C-13.76 17.16 -14.15 15.54 -14.19 11.62 C-14.2 10.85 -14.22 10.08 -14.23 9.29 C-13.97 6.73 -13.34 5.18 -12 3 C-8.06 -0.15 -4.97 -0.61 0 0 Z M-8 8 C-8.33 9.32 -8.66 10.64 -9 12 C-6.45 14.35 -5.29 14.98 -1.75 15.19 C-0.84 15.13 0.07 15.06 1 15 C1.66 13.68 2.32 12.36 3 11 C2.01 9.33 2.01 9.33 0 8 C-2.72 7.73 -5.26 7.87 -8 8 Z " fill="#FAFDFF" transform="translate(950,707)"/>
<path d="M0 0 C3.46 1.41 4.77 2.66 6.88 5.75 C8.29 9.84 8.33 11.87 7 16 C4.55 19.21 1.9 21.53 -2.07 22.51 C-5.63 22.71 -7.84 22.1 -10.88 20.25 C-13.42 17.56 -14.9 15.53 -15.15 11.78 C-14.57 5.58 -14.57 5.58 -11.56 2.5 C-7.36 0.04 -4.94 -0.34 0 0 Z M-9 10 C-8.67 11.65 -8.34 13.3 -8 15 C-3.21 15.23 -3.21 15.23 1 13 C1.33 10.46 1.33 10.46 1 8 C-0.04 6.75 -0.04 6.75 -2.31 6.75 C-5.44 7.04 -6.69 7.94 -9 10 Z " fill="#FAFDFF" transform="translate(943,607)"/>
<path d="M0 0 C3.11 2.35 4.95 3.84 5.7 7.8 C5.95 11.14 5.93 13.69 4.21 16.63 C1.56 19.56 -0.42 20.67 -4.25 21.81 C-9.33 21.72 -11.4 19.97 -15 16.56 C-17.23 12.85 -17.54 9.98 -16.69 5.75 C-12.76 -0.7 -7.17 -3.34 0 0 Z M-8.69 4.75 C-9.35 5.41 -10.01 6.07 -10.69 6.75 C-10.75 9.22 -10.75 9.22 -9.69 11.75 C-7.23 14.07 -7.23 14.07 -4.69 15.75 C-3.7 15.09 -2.71 14.43 -1.69 13.75 C-1.1 11.34 -1.1 11.34 -1.69 8.75 C-3.4 6.37 -3.4 6.37 -5.69 4.75 C-6.68 4.75 -7.67 4.75 -8.69 4.75 Z " fill="#FAFDFF" transform="translate(868.6875,847.25)"/>
<path d="M0 0 C3 2.12 3 2.12 5 5 C5.5 8.69 5.5 8.69 5 12 C2 14 2 14 -0.7 13.54 C-1.69 13.24 -2.67 12.94 -3.69 12.62 C-4.68 12.33 -5.68 12.03 -6.7 11.73 C-7.46 11.49 -8.22 11.25 -9 11 C-8.67 11.99 -8.34 12.98 -8 14 C-4.94 14.54 -2.11 15 1 15 C1.33 16.65 1.66 18.3 2 20 C-1.75 22.5 -3.47 22.19 -7.77 21.62 C-11.18 20.67 -12.87 18.73 -15 16 C-16.75 12.51 -15.84 8.72 -15 5 C-11.17 -1.14 -6.82 -1.91 0 0 Z M-7 5 C-7 5.66 -7 6.32 -7 7 C-4.52 7.5 -4.52 7.5 -2 8 C-2 7.01 -2 6.02 -2 5 C-3.65 5 -5.3 5 -7 5 Z " fill="#FAFDFF" transform="translate(695,884)"/>
<path d="M0 0 C1.88 0.31 1.88 0.31 4 1 C4.66 1.99 5.32 2.98 6 4 C6.8 4.31 7.61 4.62 8.44 4.94 C11.5 6.21 12.55 7.02 14 10 C13.75 15.76 12.2 18.64 8.44 22.94 C7.2 24.37 7.2 24.37 5.93 25.84 C5.3 26.55 4.66 27.27 4 28 C1.5 26.69 1.5 26.69 -1 25 C-1 20.53 1.68 18.48 4.47 15.16 C6.29 13.03 6.29 13.03 6 10 C4.68 10 3.36 10 2 10 C-0.03 12.2 -0.03 12.2 -1.75 15 C-2.36 15.93 -2.98 16.86 -3.61 17.81 C-4.07 18.53 -4.53 19.26 -5 20 C-7.87 19.43 -8.86 19.14 -11 17 C-10.47 12.59 -7.62 9.61 -4.94 6.25 C-4.47 5.65 -3.99 5.05 -3.51 4.43 C-2.34 2.95 -1.17 1.47 0 0 Z " fill="#FAFDFF" transform="translate(600,841)"/>
<path d="M0 0 C0 3.96 0 7.92 0 12 C0.99 11.67 1.98 11.34 3 11 C3 7.7 3 4.4 3 1 C4.32 0.67 5.64 0.34 7 0 C9.38 4.57 10.64 7.98 9.69 13.13 C8.72 15.77 7.16 17.53 4.88 19.15 C1.28 20.78 -2.17 20.77 -6 20 C-9.43 17.96 -11.89 15.9 -13 12 C-12.92 7.58 -12.47 5.57 -9.62 2.12 C-5.86 -0.93 -4.78 -1.2 0 0 Z M-7 7 C-6.67 8.65 -6.34 10.3 -6 12 C-5.34 12 -4.68 12 -4 12 C-4 10.35 -4 8.7 -4 7 C-4.99 7 -5.98 7 -7 7 Z " fill="#FAFDFF" transform="translate(951,674)"/>
<path d="M0 0 C2.94 2.19 2.94 2.19 5 5 C5.31 7.81 5.31 7.81 5 10 C3.73 10.51 2.46 11 1.19 11.5 C0.48 11.78 -0.23 12.06 -0.96 12.34 C-3 13 -3 13 -6 13 C-5.67 13.66 -5.34 14.32 -5 15 C-0.73 15.37 1.49 14.41 5 12 C5.99 12.66 6.98 13.32 8 14 C6.59 17.41 5.27 19.24 2 21 C-2.33 22.06 -5.76 22.5 -9.94 20.81 C-12.63 18.45 -13.77 16.35 -14.37 12.82 C-14.5 8.39 -14.48 6.6 -11.62 3 C-7.54 -0.11 -5.17 -0.53 0 0 Z M-7 6 C-7.33 6.99 -7.66 7.98 -8 9 C-6.02 8.67 -4.04 8.34 -2 8 C-2 7.34 -2 6.68 -2 6 C-3.65 6 -5.3 6 -7 6 Z " fill="#FAFDFF" transform="translate(814,875)"/>
<path d="M0 0 C0.99 0.66 1.98 1.32 3 2 C2.54 7.03 0.01 10.15 -3 14 C-0.51 13.44 -0.51 13.44 2 12 C3.37 8.97 3.37 8.97 4 6 C5.65 6 7.3 6 9 6 C9.41 9.37 9.58 11.97 7.88 14.99 C5.48 18 3.69 19.74 0.06 21.12 C-5.08 20.92 -8.61 19.18 -12.5 15.88 C-14.37 12.29 -14.32 10.03 -13.69 6.09 C-12.64 2.92 -10.82 1.65 -8 0 C-5.09 -1.46 -3.12 -0.7 0 0 Z M-8 6 C-8 7.32 -8 8.64 -8 10 C-7.34 10 -6.68 10 -6 10 C-5.34 8.35 -4.68 6.7 -4 5 C-6.07 4.85 -6.07 4.85 -8 6 Z " fill="#FAFDFF" transform="translate(917,793)"/>
<path d="M0 0 C0.77 -0.01 1.54 -0.03 2.34 -0.04 C4.91 0.22 6.45 0.79 8.62 2.19 C11.59 6.64 11.26 10.97 10.62 16.19 C8.34 19.65 5.62 21.14 1.62 22.19 C-3.26 21.98 -5.84 20.52 -9.38 17.19 C-11.1 13.73 -10.86 9.97 -10.38 6.19 C-7.45 1.51 -5.4 0.04 0 0 Z M-1.38 5.19 C-3.75 7.13 -3.75 7.13 -3.62 10.69 C-3.75 14.24 -3.75 14.24 -1.38 16.19 C1.23 15.87 1.23 15.87 3.62 15.19 C3.67 13.91 3.71 12.63 3.75 11.31 C3.78 10.23 3.78 10.23 3.82 9.13 C3.81 6.95 3.81 6.95 1.62 5.19 C0.63 5.19 -0.36 5.19 -1.38 5.19 Z " fill="#FAFDFF" transform="translate(744.375,888.8125)"/>
<path d="M0 0 C2.56 1.56 2.56 1.56 5 4 C4.93 8.26 4.37 10.45 2 14 C5.3 13.34 8.6 12.68 12 12 C13.32 13.65 14.64 15.3 16 17 C15.46 17.2 14.92 17.39 14.37 17.59 C11.89 18.5 9.41 19.41 6.94 20.31 C6.09 20.62 5.24 20.93 4.37 21.25 C0.54 22.65 -3.25 24.08 -6.98 25.73 C-10 27 -10 27 -12.25 26.94 C-14.54 25.71 -15.61 24.16 -17 22 C-16.42 21.86 -15.84 21.72 -15.24 21.58 C-10.92 20.18 -8.59 18.95 -6.14 15.02 C-4.63 11.71 -3.27 8.4 -2 5 C-1.34 3.33 -0.67 1.67 0 0 Z " fill="#FAFDFF" transform="translate(576,815)"/>
<path d="M0 0 C0.66 0.33 1.32 0.66 2 1 C1.5 8.96 0.46 16.59 -1.25 24.38 C-1.47 25.41 -1.7 26.45 -1.93 27.51 C-2.39 29.65 -2.86 31.78 -3.33 33.91 C-3.95 36.77 -4.54 39.63 -5.12 42.5 C-7.31 52.96 -10.15 63.1 -13.5 73.25 C-13.87 74.37 -14.24 75.49 -14.61 76.64 C-19.33 90.51 -19.33 90.51 -23 96 C-24.49 96.5 -24.49 96.5 -26 97 C-25.18 91.08 -22.53 85.73 -20.23 80.27 C-14.37 66.01 -10.84 51.52 -7.88 36.44 C-7.54 34.76 -7.2 33.08 -6.86 31.4 C-5.6 25.11 -4.35 18.81 -3.13 12.52 C-2.99 11.82 -2.85 11.13 -2.71 10.41 C-2.35 8.54 -1.98 6.67 -1.62 4.79 C-1 2 -1 2 0 0 Z " fill="#1DA5E0" transform="translate(682,378)"/>
<path d="M0 0 C0.33 1.65 0.66 3.3 1 5 C-1.31 5.33 -3.62 5.66 -6 6 C-1.54 7.98 -1.54 7.98 3 10 C3.48 17.38 3.48 17.38 1.5 19.94 C-2.95 21.83 -7.33 22.56 -12 21 C-11.67 19.35 -11.34 17.7 -11 16 C-8.36 16 -5.72 16 -3 16 C-3 15.34 -3 14.68 -3 14 C-4.07 13.92 -5.14 13.84 -6.25 13.75 C-10 13 -10 13 -12.5 11.38 C-14 9 -14 9 -14.12 5.44 C-13 2 -13 2 -10.38 0 C-6.49 -1.15 -3.93 -0.86 0 0 Z " fill="#FAFDFF" transform="translate(771,887)"/>
<path d="M0 0 C1.19 0.01 1.19 0.01 2.4 0.01 C3.19 0.01 3.98 0 4.8 0 C10.71 0.01 10.71 0.01 12.97 1.14 C13.9 3.44 14.74 5.72 15.53 8.07 C17.05 12.69 17.05 12.69 18.97 17.14 C9.7 15.73 1.8 13.91 -5.03 7.14 C-6.66 3.7 -6.66 3.7 -7.03 1.14 C-5.16 -0.74 -2.49 0 0 0 Z " fill="#050A0B" transform="translate(446.033203125,528.86328125)"/>
<path d="M0 0 C1.32 0.66 2.64 1.32 4 2 C4 3.98 4 5.96 4 8 C4.66 8.33 5.32 8.66 6 9 C5.67 10.65 5.34 12.3 5 14 C3.68 13.67 2.36 13.34 1 13 C-0.32 15.97 -1.64 18.94 -3 22 C-2.34 22.66 -1.68 23.32 -1 24 C-1 25.32 -1 26.64 -1 28 C-4.18 28.22 -6.44 28.25 -9.38 26.94 C-11 25 -11 25 -11.44 21.69 C-10.98 17.8 -9.73 15.46 -8 12 C-8.3 9.31 -8.3 9.31 -9 7 C-8 5 -8 5 -5.62 4.06 C-3.04 3.02 -1.8 2.08 0 0 Z " fill="#FAFDFF" transform="translate(652,865)"/>
<path d="M0 0 C1.36 3.74 0.59 6.29 -0.44 10.06 C-3.18 21.35 -1.71 31.67 0 43 C4.59 43.26 7.46 42.64 11.55 40.56 C13.06 39.81 13.06 39.81 14.61 39.04 C15.64 38.51 16.68 37.98 17.75 37.44 C19.82 36.39 21.9 35.34 23.98 34.31 C24.9 33.84 25.81 33.38 26.76 32.9 C27.5 32.6 28.24 32.3 29 32 C29.99 32.5 29.99 32.5 31 33 C28.22 36.02 25.65 37.92 21.97 39.73 C21.02 40.2 20.06 40.68 19.07 41.16 C18.08 41.65 17.09 42.13 16.06 42.62 C14.58 43.36 14.58 43.36 13.06 44.11 C8.76 46.23 4.48 48.26 0 50 C0 49.01 0 48.02 0 47 C-0.66 47 -1.32 47 -2 47 C-5.96 33.71 -9.58 18.05 -2.98 4.97 C-2.03 3.29 -1.02 1.64 0 0 Z " fill="#23A7DF" transform="translate(319,445)"/>
<path d="M0 0 C0.8 0.53 0.8 0.53 1.62 1.06 C4.73 2.29 6.79 1.73 10 1 C10.66 2.32 11.32 3.64 12 5 C11.01 6.49 11.01 6.49 10 8 C11.07 9.04 12.16 10.05 13.25 11.06 C13.85 11.63 14.46 12.2 15.08 12.79 C16.93 14.26 16.93 14.26 19.11 13.62 C19.73 13.42 20.36 13.21 21 13 C21.66 13.33 22.32 13.66 23 14 C22.44 17.26 21.67 19 19 21 C16.64 21.79 16.64 21.79 14 22 C11.97 20.64 11.97 20.64 10.06 18.69 C6.87 15.64 4.4 13.99 0 13 C0 11.68 0 10.36 0 9 C-0.35 8.34 -0.7 7.68 -1.06 7 C-2 5 -2 5 -1.69 2.81 C-1 1 -1 1 0 0 Z " fill="#FAFDFF" transform="translate(875,824)"/>
<path d="M0 0 C2.12 0.94 2.12 0.94 4 2 C4 2.66 4 3.32 4 4 C5.65 3.34 7.3 2.68 9 2 C9.66 2.66 10.32 3.32 11 4 C10.62 6.12 10.62 6.12 10 8 C9.34 8 8.68 8 8 8 C9.65 10.97 11.3 13.94 13 17 C14.65 17 16.3 17 18 17 C18.33 18.32 18.66 19.64 19 21 C16.78 23.05 15.12 23.97 12.19 24.75 C7.59 23.67 6.04 20.87 3.32 17.16 C2 15 2 15 2 13 C1.01 13.33 0.02 13.66 -1 14 C-1.66 13.34 -2.32 12.68 -3 12 C-2.73 9.99 -2.39 7.99 -2 6 C-1.96 4.33 -1.95 2.67 -2 1 C-1.34 0.67 -0.68 0.34 0 0 Z " fill="#FAFDFF" transform="translate(838,853)"/>
<path d="M0 0 C1.19 2.56 1.19 2.56 2 5 C-3.54 8.21 -9.15 11.26 -14.81 14.25 C-15.67 14.71 -16.53 15.17 -17.41 15.64 C-18.23 16.07 -19.05 16.51 -19.89 16.95 C-21.01 17.54 -21.01 17.54 -22.14 18.15 C-24 19 -24 19 -26 19 C-27.46 16.35 -28 15.11 -28 12 C-23.65 9.66 -19.3 7.34 -14.93 5.03 C-13.25 4.13 -11.56 3.23 -9.88 2.32 C-9.01 1.86 -8.15 1.41 -7.25 0.94 C-6.49 0.53 -5.73 0.13 -4.95 -0.29 C-3 -1 -3 -1 0 0 Z " fill="#FAFDFF" transform="translate(935,580)"/>
<path d="M0 0 C4.72 4.32 6.74 9.3 9.31 15.06 C9.78 16.07 10.25 17.07 10.73 18.11 C11.38 19.56 11.38 19.56 12.05 21.04 C12.45 21.92 12.85 22.8 13.26 23.7 C14 26 14 26 13 29 C11.02 29.33 9.04 29.66 7 30 C3 21 -1 12 -5 3 C-3.35 2.01 -1.7 1.02 0 0 Z " fill="#FAFDFF" transform="translate(819,860)"/>
<path d="M0 0 C2.06 1.75 2.06 1.75 4 4 C4.13 5.95 4.13 5.95 3 8 C0.99 9.77 -0.96 11.32 -3.12 12.88 C-4.31 13.75 -5.49 14.63 -6.68 15.52 C-7.25 15.94 -7.82 16.36 -8.41 16.8 C-11.4 19.06 -14.19 21.52 -17 24 C-18.94 23.25 -18.94 23.25 -21 22 C-21.75 19.88 -21.75 19.88 -22 18 C-15.01 11.53 -7.6 5.73 0 0 Z " fill="#FAFDFF" transform="translate(578,803)"/>
<path d="M0 0 C1.8 0.04 3.6 0.16 5.39 0.3 C6.49 0.39 7.59 0.48 8.73 0.57 C9.89 0.67 11.05 0.77 12.25 0.88 C13.4 0.97 14.54 1.06 15.72 1.15 C20.55 1.55 25.26 1.97 30 3 C30 4.98 30 6.96 30 9 C26.59 10.14 24.41 9.96 20.84 9.7 C19.63 9.61 18.43 9.52 17.19 9.43 C15.93 9.33 14.67 9.23 13.38 9.12 C12.11 9.03 10.84 8.94 9.54 8.85 C0.13 8.13 0.13 8.13 -1 7 C-1.12 4 -1.12 4 -1 1 C-0.67 0.67 -0.34 0.34 0 0 Z " fill="#FAFDFF" transform="translate(930,695)"/>
<path d="M0 0 C2.54 2.21 3.31 3.74 4 7 C1.44 8.2 -1.12 9.39 -3.69 10.56 C-4.41 10.9 -5.13 11.25 -5.87 11.6 C-9.93 13.44 -12.58 14.6 -17 13 C-17 11.02 -17 9.04 -17 7 C-17.99 6.67 -18.98 6.34 -20 6 C-20.69 3.94 -20.69 3.94 -21 2 C-17.53 1.5 -17.53 1.5 -14 1 C-13.34 1.99 -12.68 2.98 -12 4 C-10.37 3.52 -8.75 3.04 -7.12 2.56 C-6.22 2.3 -5.32 2.03 -4.38 1.75 C-2.02 1.07 -2.02 1.07 0 0 Z " fill="#FAFDFF" transform="translate(940,594)"/>
<path d="M0 0 C2.32 7.29 4.48 14.5 6 22 C1.38 22 -3.24 22 -8 22 C-9.11 18.67 -8.92 18 -7.86 14.8 C-7.59 14.01 -7.33 13.21 -7.05 12.39 C-6.77 11.56 -6.48 10.73 -6.19 9.88 C-5.91 9.04 -5.64 8.2 -5.36 7.34 C-2.88 0 -2.88 0 0 0 Z " fill="#1EAAE6" transform="translate(550,608)"/>
<path d="M0 0 C1.88 0.25 1.88 0.25 4 1 C4.66 2.32 5.32 3.64 6 5 C1.71 9.62 -2.58 14.24 -7 19 C-9.48 18.01 -9.48 18.01 -12 17 C-12 12.5 -12 12.5 -9.38 9.77 C-8.83 9.19 -8.29 8.62 -7.73 8.03 C-7.16 7.44 -6.59 6.85 -6 6.25 C-5.43 5.65 -4.86 5.05 -4.27 4.43 C-2.85 2.94 -1.43 1.47 0 0 Z " fill="#FAFDFF" transform="translate(592,833)"/>
<path d="M0 0 C3.61 3.41 6.31 6.84 9 11 C11.49 14.42 13.24 16.19 17 18 C17.33 18.99 17.66 19.98 18 21 C18.65 21.45 19.31 21.9 19.98 22.36 C22.59 24.48 22.74 25.92 23.25 29.19 C23.4 30.09 23.55 30.99 23.7 31.92 C23.8 32.61 23.9 33.29 24 34 C18.87 30.45 15.61 25.8 12 20.81 C11.4 20 10.79 19.19 10.17 18.35 C0 4.45 0 4.45 0 0 Z " fill="#050A0B" transform="translate(527,682)"/>
<path d="M0 0 C0.66 0 1.32 0 2 0 C3.42 1.72 4.77 3.5 6.06 5.31 C6.78 6.3 7.49 7.28 8.22 8.3 C10 11 10 11 11 14 C13.46 16.66 15.92 18.94 18.81 21.12 C19.53 21.74 20.26 22.36 21 23 C21 23.99 21 24.98 21 26 C21.99 26.33 22.98 26.66 24 27 C27.48 30.06 29.61 32.56 31 37 C16.99 30.47 7.27 14.06 0 1 C0 0.67 0 0.34 0 0 Z " fill="#050A0B" transform="translate(569,751)"/>
<path d="M0 0 C2.34 0.29 4.67 0.62 7 1 C7 1.66 7 2.32 7 3 C7.66 3 8.32 3 9 3 C9.12 6.38 9.12 6.38 9 10 C8.34 10.66 7.68 11.32 7 12 C3.81 11.66 1.04 11.01 -2 10 C-1.86 8.52 -1.71 7.04 -1.56 5.56 C-1.48 4.74 -1.4 3.92 -1.32 3.07 C-1 1 -1 1 0 0 Z " fill="#F7FCFE" transform="translate(700,694)"/>
<path d="M0 0 C2 3 2 3 1.88 4.94 C0.49 10.53 -1.29 15.84 -3.44 21.19 C-3.74 21.96 -4.04 22.72 -4.35 23.51 C-7.76 32.16 -7.76 32.16 -10 36 C-11.49 36.5 -11.49 36.5 -13 37 C-12.41 33.66 -11.59 30.69 -10.29 27.56 C-9.96 26.73 -9.62 25.91 -9.27 25.06 C-8.91 24.19 -8.56 23.33 -8.19 22.44 C-5.17 15.03 -2.36 7.64 0 0 Z " fill="#1B99CF" transform="translate(669,438)"/>
<path d="M0 0 C3.81 1.5 5.72 3.63 8 7 C8.75 9.81 8.75 9.81 9 12 C6.58 13.21 5.09 13.1 2.39 13.06 C1.01 13.05 1.01 13.05 -0.4 13.04 C-2.33 13.01 -4.26 12.99 -6.19 12.96 C-7.58 12.95 -7.58 12.95 -8.99 12.94 C-9.83 12.93 -10.67 12.91 -11.54 12.9 C-14.12 13 -16.48 13.43 -19 14 C-18.34 13.67 -17.68 13.34 -17 13 C-16.67 12.01 -16.34 11.02 -16 10 C-12.23 8.11 -7.27 9.36 -3.12 9.68 C1.06 10.13 1.06 10.13 5 9 C4.64 8.52 4.28 8.04 3.91 7.54 C3.44 6.91 2.98 6.28 2.5 5.62 C2.04 5 1.57 4.37 1.09 3.73 C0 2 0 2 0 0 Z " fill="#050B0D" transform="translate(514,402)"/>
<path d="M0 0 C1.28 -0.06 2.56 -0.12 3.88 -0.19 C4.95 -0.24 4.95 -0.24 6.05 -0.29 C6.7 -0.2 7.34 -0.1 8 0 C10 3 10 3 9.69 6.62 C9 10 9 10 8 11 C3.9 10.62 1.46 10.31 -2 8 C-1.12 2.25 -1.12 2.25 0 0 Z " fill="#FAFDFF" transform="translate(719,702)"/>
<path d="M0 0 C2.44 0.75 2.44 0.75 4.44 2.75 C4.69 6.25 4.69 6.25 4.44 9.75 C3.78 10.41 3.12 11.07 2.44 11.75 C-1.37 11.43 -3.35 10.89 -6.56 8.75 C-6.25 5.38 -6.25 5.38 -5.56 1.75 C-2.56 -0.25 -2.56 -0.25 0 0 Z " fill="#FAFDFF" transform="translate(742.5625,708.25)"/>
<path d="M0 0 C2.31 0 4.62 0 7 0 C7 0.66 7 1.32 7 2 C7.66 2 8.32 2 9 2 C8.67 4.64 8.34 7.28 8 10 C4.62 11.06 3.42 11.21 0.19 9.56 C-0.53 9.05 -1.26 8.53 -2 8 C-1.34 5.36 -0.68 2.72 0 0 Z " fill="#FAFDFF" transform="translate(756,715)"/>
<path d="M0 0 C1.19 2.19 1.19 2.19 2 5 C1 7.69 1 7.69 -1 10 C-4.19 11.31 -4.19 11.31 -7 12 C-8.42 9.16 -8.31 7.15 -8 4 C-5.32 0.37 -4.65 0 0 0 Z " fill="#F2FAFE" transform="translate(795,725)"/>
<path d="M0 0 C0.25 5.62 0.25 5.62 -2 9 C-7.75 8.12 -7.75 8.12 -10 7 C-9.52 0.46 -9.52 0.46 -7.25 -1.56 C-4.28 -2.14 -2.66 -1.33 0 0 Z " fill="#FAFDFF" transform="translate(781,722)"/>
<path d="M0 0 C0.66 0 1.32 0 2 0 C2.66 4.29 3.32 8.58 4 13 C0.7 12.67 -2.6 12.34 -6 12 C-5.56 7.15 -3.25 3.52 0 0 Z " fill="#FAFDFF" transform="translate(778,755)"/>
<path d="M0 0 C1.44 0.74 2.88 1.49 4.31 2.25 C5.11 2.67 5.91 3.09 6.74 3.52 C9.19 5.12 10.49 6.5 12 9 C12.69 12.75 12.69 12.75 13 16 C12.34 16.33 11.68 16.66 11 17 C6.37 11.98 2.42 6.92 -1 1 C-0.67 0.67 -0.34 0.34 0 0 Z " fill="#050A0B" transform="translate(497,381)"/>
<path d="M0 0 C2.99 0.73 4.54 1.37 6.38 3.88 C7.1 6.33 6.85 7.61 6 10 C0.58 10.37 0.58 10.37 -2.38 8.5 C-2.91 8 -3.45 7.51 -4 7 C-3.69 4.62 -3.69 4.62 -3 2 C-2.01 1.34 -1.02 0.68 0 0 Z " fill="#FAFDFF" transform="translate(696,775)"/>
<path d="M0 0 C1.88 0.69 1.88 0.69 2.88 1.69 C2.92 4.02 2.92 6.35 2.88 8.69 C0.57 9.35 -1.75 10.01 -4.12 10.69 C-4.12 10.03 -4.12 9.37 -4.12 8.69 C-4.78 8.69 -5.45 8.69 -6.12 8.69 C-5.81 5.31 -5.81 5.31 -5.12 1.69 C-2.12 -0.31 -2.12 -0.31 0 0 Z " fill="#FAFDFF" transform="translate(667.125,683.3125)"/>
<path d="M0 0 C1.61 3.21 1.06 6.44 1 10 C-1.33 10.04 -3.67 10.04 -6 10 C-7 9 -7 9 -7.25 6.12 C-7 3 -7 3 -5.75 1.12 C-4 0 -4 0 0 0 Z " fill="#FAFDFF" transform="translate(605,668)"/>
<path d="M0 0 C0.6 0.23 1.2 0.45 1.81 0.69 C2.94 7.44 2.94 7.44 1.81 9.69 C-3.94 9.81 -3.94 9.81 -6.19 8.69 C-5.59 3.28 -5.59 3.28 -3.88 0.75 C-2.19 -0.31 -2.19 -0.31 0 0 Z " fill="#FAFDFF" transform="translate(651.1875,678.3125)"/>
<path d="M0 0 C1.98 0 3.96 0 6 0 C6 0.66 6 1.32 6 2 C6.66 2 7.32 2 8 2 C7.67 4.31 7.34 6.62 7 9 C4.12 9.12 4.12 9.12 1 9 C0.34 8.34 -0.32 7.68 -1 7 C-0.62 3.38 -0.62 3.38 0 0 Z " fill="#FAFDFF" transform="translate(727,788)"/>
<path d="M0 0 C1.49 2.98 1.12 5.72 1 9 C0.67 9.33 0.34 9.66 0 10 C-2.34 9.71 -4.67 9.38 -7 9 C-7.36 3.55 -7.36 3.55 -5.75 1.12 C-4 0 -4 0 0 0 Z " fill="#FAFDFF" transform="translate(621,671)"/>
<path d="M0 0 C1.27 0.12 1.27 0.12 2.56 0.25 C4.85 3.69 4.74 5.24 4.56 9.25 C-1.06 9.5 -1.06 9.5 -4.44 7.25 C-3.41 0.35 -3.41 0.35 0 0 Z " fill="#FAFDFF" transform="translate(679.4375,768.75)"/>
<path d="M0 0 C1.65 0.99 3.3 1.98 5 3 C4.12 8.75 4.12 8.75 3 11 C0.69 10.67 -1.62 10.34 -4 10 C-3.12 4.25 -3.12 4.25 -2 2 C-1.34 2 -0.68 2 0 2 C0 1.34 0 0.68 0 0 Z " fill="#FAFDFF" transform="translate(805,728)"/>
<path d="M0 0 C3.3 0.33 4.62 0.62 7 3 C7.19 5.56 7.19 5.56 7 8 C6 9 6 9 3.06 9.19 C0 9 0 9 -2 7 C-2.25 4.5 -2.25 4.5 -2 2 C-1.34 1.34 -0.68 0.68 0 0 Z " fill="#FAFDFF" transform="translate(712,782)"/>
<path d="M0 0 C1.48 2.96 1.06 5.74 1 9 C-1.33 9.04 -3.67 9.04 -6 9 C-7 8 -7 8 -7.31 5.12 C-7 2 -7 2 -5.19 0.06 C-3 -1 -3 -1 0 0 Z " fill="#FAFDFF" transform="translate(637,675)"/>
<path d="M0 0 C2.88 -0.19 2.88 -0.19 6 0 C8 3 8 3 7.69 5.62 C7 8 7 8 6 9 C3.56 9.19 3.56 9.19 1 9 C0.34 8.34 -0.32 7.68 -1 7 C-0.62 3.38 -0.62 3.38 0 0 Z " fill="#FAFDFF" transform="translate(558,744)"/>
<path d="M0 0 C1.21 0.03 1.21 0.03 2.44 0.06 C2.44 0.72 2.44 1.38 2.44 2.06 C3.1 2.06 3.76 2.06 4.44 2.06 C4.11 4.04 3.78 6.02 3.44 8.06 C1.12 8.69 1.12 8.69 -1.56 9.06 C-2.55 8.4 -3.54 7.74 -4.56 7.06 C-3.52 0.09 -3.52 0.09 0 0 Z " fill="#FAFDFF" transform="translate(745.5625,792.9375)"/>
<path d="M0 0 C0.66 0.33 1.32 0.66 2 1 C1.07 1.51 0.14 2.02 -0.82 2.54 C-10.92 8.13 -18.34 13.39 -25 23 C-25.33 22.01 -25.66 21.02 -26 20 C-20.41 11.01 -9.84 3.57 0 0 Z " fill="#050A0B" transform="translate(563,390)"/>
<path d="M0 0 C0.62 2.81 0.62 2.81 1 6 C0.01 7.49 0.01 7.49 -1 9 C-4.12 9.19 -4.12 9.19 -7 9 C-6.39 3.54 -6.39 3.54 -4.62 1.12 C-3 0 -3 0 0 0 Z " fill="#FAFDFF" transform="translate(822,733)"/>
<path d="M0 0 C2.38 -0.12 2.38 -0.12 5 0 C5.66 0.66 6.32 1.32 7 2 C6.62 5.12 6.62 5.12 6 8 C3.69 7.67 1.38 7.34 -1 7 C-0.67 4.69 -0.34 2.38 0 0 Z " fill="#FAFDFF" transform="translate(660,763)"/>
<path d="M0 0 C2.69 1.44 2.69 1.44 5 3 C4.43 5.87 4.14 6.86 2 9 C0 8.88 0 8.88 -2 8 C-3.31 6.12 -3.31 6.12 -4 4 C-3.67 3.01 -3.34 2.02 -3 1 C-2.01 0.67 -1.02 0.34 0 0 Z " fill="#FAFDFF" transform="translate(599,826)"/>
<path d="M0 0 C0.33 0.66 0.66 1.32 1 2 C1.99 2.33 2.98 2.66 4 3 C3.31 5.44 3.31 5.44 2 8 C-0.5 8.94 -0.5 8.94 -3 9 C-3.66 8.34 -4.32 7.68 -5 7 C-4.62 3.88 -4.62 3.88 -4 1 C-2.68 0.67 -1.36 0.34 0 0 Z " fill="#FAFDFF" transform="translate(760,797)"/>
<path d="M0 0 C2.56 -0.25 2.56 -0.25 5 0 C5.33 0.33 5.66 0.66 6 1 C5.71 3.34 5.38 5.67 5 8 C2.03 7.5 2.03 7.5 -1 7 C-1.62 5.19 -1.62 5.19 -2 3 C-1.34 2.01 -0.68 1.02 0 0 Z " fill="#FAFDFF" transform="translate(632,755)"/>
<path d="M0 0 C2.12 0.94 2.12 0.94 4 2 C4 3.98 4 5.96 4 8 C2.25 8.69 2.25 8.69 0 9 C-2.25 7.56 -2.25 7.56 -4 6 C-2.25 1.12 -2.25 1.12 0 0 Z " fill="#FAFDFF" transform="translate(648,758)"/>
<path d="M0 0 C2 3 2 3 1.83 5.09 C-0.44 14.06 -0.44 14.06 -2 17 C-2.99 17.33 -3.98 17.66 -5 18 C-3.9 11.69 -2.42 5.94 0 0 Z " fill="#1A93C7" transform="translate(669,438)"/>
<path d="M0 0 C1.67 -0.04 3.33 -0.04 5 0 C6 1 6 1 6.06 4.06 C6.04 5.03 6.02 6 6 7 C4.25 7.69 4.25 7.69 2 8 C-0.25 6.56 -0.25 6.56 -2 5 C-1.34 3.35 -0.68 1.7 0 0 Z " fill="#FAFDFF" transform="translate(617,752)"/>
<path d="M0 0 C1.65 0.33 3.3 0.66 5 1 C5.93 4.01 6.04 4.87 5 8 C2.03 7.5 2.03 7.5 -1 7 C-1.62 5.19 -1.62 5.19 -2 3 C-1.34 2.01 -0.68 1.02 0 0 Z " fill="#FAFDFF" transform="translate(603,749)"/>
<path d="M0 0 C0.99 0 1.98 0 3 0 C1.89 5.87 0.76 9.98 -4.19 13.62 C-5.44 14.44 -6.71 15.24 -8 16 C-5.33 10.67 -2.67 5.33 0 0 Z " fill="#47B9EA" transform="translate(670,383)"/>
<path d="M0 0 C0.99 0.33 1.98 0.66 3 1 C2.12 6.75 2.12 6.75 1 9 C-0.65 8.67 -2.3 8.34 -4 8 C-3.5 4.31 -2.9 2.4 0 0 Z " fill="#FAFDFF" transform="translate(833,736)"/>
<path d="M0 0 C1.46 -0.03 2.92 -0.05 4.38 -0.06 C5.19 -0.07 6 -0.09 6.84 -0.1 C9 0 9 0 11 1 C11 1.66 11 2.32 11 3 C11.99 3.33 12.98 3.66 14 4 C9.71 4 5.42 4 1 4 C0.67 2.68 0.34 1.36 0 0 Z " fill="#050A0B" transform="translate(559,522)"/>
<path d="M0 0 C0.99 0.66 1.98 1.32 3 2 C2.34 3.98 1.68 5.96 1 8 C-1.97 7.5 -1.97 7.5 -5 7 C-3.75 3.35 -3.33 2.22 0 0 Z " fill="#FAFDFF" transform="translate(785,804)"/>
<path d="M0 0 C2.12 0.94 2.12 0.94 4 2 C3.67 3.65 3.34 5.3 3 7 C1.02 7 -0.96 7 -3 7 C-3.33 6.34 -3.66 5.68 -4 5 C-2.53 1.26 -2.53 1.26 0 0 Z " fill="#FAFDFF" transform="translate(772,801)"/>
<path d="M0 0 C0.66 0.33 1.32 0.66 2 1 C-1.29 4.84 -5.25 7.32 -10 9 C-10.66 8.67 -11.32 8.34 -12 8 C-11 5 -11 5 -8.57 3.58 C-7.58 3.14 -6.58 2.7 -5.56 2.25 C-4.57 1.8 -3.59 1.35 -2.57 0.89 C-1.3 0.45 -1.3 0.45 0 0 Z " fill="#198ABA" transform="translate(348,477)"/>
<path d="M0 0 C1.32 0.33 2.64 0.66 4 1 C3.12 5.75 3.12 5.75 2 8 C0.35 8 -1.3 8 -3 8 C-2.37 5.07 -1.41 2.64 0 0 Z " fill="#FAFDFF" transform="translate(843,739)"/>
<path d="M0 0 C1.94 0.31 1.94 0.31 4 1 C4.33 1.99 4.66 2.98 5 4 C4.34 4 3.68 4 3 4 C2.67 4.99 2.34 5.98 2 7 C0.68 6.67 -0.64 6.34 -2 6 C-1.34 4.02 -0.68 2.04 0 0 Z " fill="#FAFDFF" transform="translate(877,742)"/>
<path d="M0 0 C0.99 0.33 1.98 0.66 3 1 C2.12 5.75 2.12 5.75 1 8 C-0.32 7.34 -1.64 6.68 -3 6 C-2.01 4.02 -1.02 2.04 0 0 Z " fill="#FAFDFF" transform="translate(885,742)"/>
<path d="M0 0 C4.55 2.28 4.55 2.28 6.31 5.88 C6.66 6.55 7.01 7.23 7.36 7.93 C8 10 8 10 7 14 C4.69 9.38 2.38 4.76 0 0 Z " fill="#050A0B" transform="translate(501,629)"/>
<path d="M0 0 C1.65 0 3.3 0 5 0 C4.67 1.65 4.34 3.3 4 5 C2.68 5.33 1.36 5.66 0 6 C-1.12 2.25 -1.12 2.25 0 0 Z " fill="#FAFDFF" transform="translate(795,808)"/>
<path d="M0 0 C0.99 0.33 1.98 0.66 3 1 C3 2.65 3 4.3 3 6 C1.35 6.33 -0.3 6.66 -2 7 C-1.12 1.12 -1.12 1.12 0 0 Z " fill="#FAFDFF" transform="translate(860,742)"/>
<path d="M0 0 C0.66 0.33 1.32 0.66 2 1 C2.62 3.06 2.62 3.06 3 5 C0 7 0 7 -2.19 6.62 C-2.79 6.42 -3.38 6.21 -4 6 C-2.25 1.12 -2.25 1.12 0 0 Z " fill="#FAFDFF" transform="translate(854,741)"/>
<path d="M0 0 C2.97 0 5.94 0 9 0 C9.33 0.66 9.66 1.32 10 2 C7.59 3.2 6.05 3.1 3.38 3.06 C2.15 3.05 2.15 3.05 0.9 3.04 C-0.04 3.02 -0.04 3.02 -1 3 C-0.67 2.01 -0.34 1.02 0 0 Z " fill="#050A0B" transform="translate(538,468)"/>
<path d="M0 0 C1.45 0.03 1.45 0.03 2.94 0.06 C-1.69 4.94 -1.69 4.94 -5.06 6.06 C-3.99 0.08 -3.99 0.08 0 0 Z " fill="#050A0B" transform="translate(597.0625,508.9375)"/>
<path d="M0 0 C0.99 0.33 1.98 0.66 3 1 C2.67 2.98 2.34 4.96 2 7 C1.01 7 0.02 7 -1 7 C-1.62 5.19 -1.62 5.19 -2 3 C-1.34 2.01 -0.68 1.02 0 0 Z " fill="#050A0B" transform="translate(904,684)"/>
<path d="M0 0 C1.32 0.66 2.64 1.32 4 2 C3.34 2 2.68 2 2 2 C1.67 3.32 1.34 4.64 1 6 C0.01 6 -0.98 6 -2 6 C-1.12 1.12 -1.12 1.12 0 0 Z " fill="#050A0B" transform="translate(850,806)"/>
<path d="M0 0 C0 1.98 0 3.96 0 6 C-1.32 6.33 -2.64 6.66 -4 7 C-4.19 4.62 -4.19 4.62 -4 2 C-1 0 -1 0 0 0 Z " fill="#061216" transform="translate(911,688)"/>
<path d="M0 0 C1.32 0.33 2.64 0.66 4 1 C2.02 3.97 2.02 3.97 0 7 C-0.66 6.67 -1.32 6.34 -2 6 C-1.34 4.02 -0.68 2.04 0 0 Z " fill="#050A0B" transform="translate(857,804)"/>
<path d="M0 0 C0.33 0.99 0.66 1.98 1 3 C-0.94 5.69 -0.94 5.69 -3 8 C-3.75 6.25 -3.75 6.25 -4 4 C-2.06 1.75 -2.06 1.75 0 0 Z " fill="#050A0B" transform="translate(917,698)"/>
<path d="M0 0 C0.66 0.33 1.32 0.66 2 1 C0.68 2.65 -0.64 4.3 -2 6 C-2.66 5.67 -3.32 5.34 -4 5 C-2.68 3.35 -1.36 1.7 0 0 Z " fill="#050A0B" transform="translate(844,810)"/>
<path d="M0 0 C0.99 0.5 0.99 0.5 2 1 C2 1.99 2 2.98 2 4 C1.34 4 0.68 4 0 4 C0 2.68 0 1.36 0 0 Z " fill="#050A0B" transform="translate(901,681)"/>
<path d="M0 0 C1 4 1 4 1 4 Z " fill="#050A0B" transform="translate(674,287)"/>
<path d="M0 0 C0 3 0 3 0 3 Z " fill="#1EAAE6" transform="translate(528,270)"/>
<path d="M0 0 C3 1 3 1 3 1 Z " fill="#FAFDFF" transform="translate(768,847)"/>
<path d="" fill="#1EAAE6" transform="translate(0,0)"/>
<path d="M0 0 C2 1 2 1 2 1 Z " fill="#FAFDFF" transform="translate(699,847)"/>
<path d="" fill="#FAFDFF" transform="translate(0,0)"/>
<path d="" fill="#050A0B" transform="translate(0,0)"/>
<path d="M0 0 C2 1 2 1 2 1 Z " fill="#1EAAE6" transform="translate(458,373)"/>
<path d="" fill="#050A0B" transform="translate(0,0)"/>
<path d="" fill="#1EAAE6" transform="translate(0,0)"/>
<path d="" fill="#FAFDFF" transform="translate(0,0)"/>
<path d="" fill="#050A0B" transform="translate(0,0)"/>
<path d="" fill="#050A0B" transform="translate(0,0)"/>
<path d="" fill="#1EAAE6" transform="translate(0,0)"/>
<path d="" fill="#050A0B" transform="translate(0,0)"/>
<path d="" fill="#050A0B" transform="translate(0,0)"/>
<path d="" fill="#050A0B" transform="translate(0,0)"/>
<path d="" fill="#1EAAE6" transform="translate(0,0)"/>
<path d="" fill="#1EAAE6" transform="translate(0,0)"/>
<path d="" fill="#050A0B" transform="translate(0,0)"/>
<path d="" fill="#050A0B" transform="translate(0,0)"/>
<path d="" fill="#FAFDFF" transform="translate(0,0)"/>
<path d="" fill="#050A0B" transform="translate(0,0)"/>
<path d="" fill="#050A0B" transform="translate(0,0)"/>
<path d="" fill="#050A0B" transform="translate(0,0)"/>
<path d="" fill="#050A0B" transform="translate(0,0)"/>
<path d="" fill="#1EAAE6" transform="translate(0,0)"/>
<path d="" fill="#050A0B" transform="translate(0,0)"/>
<path d="" fill="#1EAAE6" transform="translate(0,0)"/>
<path d="" fill="#1EAAE6" transform="translate(0,0)"/>
<path d="" fill="#1EAAE6" transform="translate(0,0)"/>
<path d="" fill="#1EAAE6" transform="translate(0,0)"/>
<path d="" fill="#1EAAE6" transform="translate(0,0)"/>
<path d="" fill="#1EAAE6" transform="translate(0,0)"/>
<path d="" fill="#1EAAE6" transform="translate(0,0)"/>
<path d="" fill="#050A0B" transform="translate(0,0)"/>
<path d="" fill="#1EAAE6" transform="translate(0,0)"/>
<path d="" fill="#1EAAE6" transform="translate(0,0)"/>
<path d="" fill="#1EAAE6" transform="translate(0,0)"/>
<path d="" fill="#1EAAE6" transform="translate(0,0)"/>
<path d="" fill="#1EAAE6" transform="translate(0,0)"/>
<path d="" fill="#1EAAE6" transform="translate(0,0)"/>
<path d="" fill="#1EAAE6" transform="translate(0,0)"/>
<path d="" fill="#1EAAE6" transform="translate(0,0)"/>
<path d="" fill="#1EAAE6" transform="translate(0,0)"/>
<path d="" fill="#1EAAE6" transform="translate(0,0)"/>
<path d="" fill="#1EAAE6" transform="translate(0,0)"/>
<path d="" fill="#1EAAE6" transform="translate(0,0)"/>
<path d="" fill="#1EAAE6" transform="translate(0,0)"/>
<path d="" fill="#1EAAE6" transform="translate(0,0)"/>
<path d="" fill="#1EAAE6" transform="translate(0,0)"/>
<path d="" fill="#1EAAE6" transform="translate(0,0)"/>
<path d="" fill="#050A0B" transform="translate(0,0)"/>
<path d="" fill="#1EAAE6" transform="translate(0,0)"/>
<path d="" fill="#1EAAE6" transform="translate(0,0)"/>
<path d="" fill="#050A0B" transform="translate(0,0)"/>
<path d="" fill="#050A0B" transform="translate(0,0)"/>
</svg>
